<?xml version="1.0" encoding="UTF-8" standalone="no"?>
<!DOCTYPE svg PUBLIC "-//W3C//DTD SVG 1.1//EN" "http://www.w3.org/Graphics/SVG/1.1/DTD/svg11.dtd">
<svg width="100%" height="100%" viewBox="0 0 345 65" version="1.1"
    xmlns="http://www.w3.org/2000/svg" xmlns:xlink="http://www.w3.org/1999/xlink"
    xml:space="preserve" xmlns:serif="http://www.serif.com/"
    style="fill-rule:evenodd;clip-rule:evenodd;stroke-linecap:round;stroke-linejoin:round;stroke-miterlimit:1.5;"
    aria-labelledby="title">
    <title id="title" lang="en">Conveyor Belt</title>
    <g>
        <path alt="one" d="M32.5,62.5C15.943,62.5 2.5,49.057 2.5,32.5C2.5,15.943 15.943,2.5 32.5,2.5L312.5,2.5C329.057,2.5 342.5,15.943 342.5,32.5C342.5,49.057 329.057,62.5 312.5,62.5L32.5,62.5Z" style="fill:rgb(229,229,229);stroke:rgb(128,128,128);stroke-width:5px;"/>
        <path class="Cog" d="M34.918,7.617C33.31,7.461 31.69,7.461 30.082,7.617C29.819,8.91 29.553,10.202 29.286,11.495C27.744,11.73 26.234,12.135 24.781,12.702C23.903,11.716 23.027,10.73 22.153,9.742C20.682,10.411 19.279,11.22 17.965,12.16C18.383,13.411 18.799,14.663 19.214,15.916C17.997,16.891 16.891,17.997 15.916,19.214C14.663,18.799 13.411,18.383 12.16,17.965C11.22,19.279 10.411,20.682 9.742,22.153C10.73,23.027 11.716,23.903 12.702,24.781C12.135,26.234 11.73,27.744 11.495,29.286C10.202,29.553 8.91,29.819 7.617,30.082C7.461,31.69 7.461,33.31 7.617,34.918C8.91,35.181 10.202,35.447 11.495,35.714C11.73,37.256 12.135,38.766 12.702,40.219C11.716,41.097 10.73,41.973 9.742,42.847C10.411,44.318 11.22,45.721 12.16,47.035C13.411,46.617 14.663,46.201 15.916,45.786C16.891,47.003 17.997,48.109 19.214,49.084C18.799,50.337 18.383,51.589 17.965,52.84C19.279,53.78 20.682,54.589 22.153,55.258C23.027,54.27 23.903,53.284 24.781,52.298C26.234,52.865 27.744,53.27 29.286,53.505C29.553,54.798 29.819,56.09 30.082,57.383C31.69,57.539 33.31,57.539 34.918,57.383C35.181,56.09 35.447,54.798 35.714,53.505C37.256,53.27 38.766,52.865 40.219,52.298C41.097,53.284 41.973,54.27 42.847,55.258C44.318,54.589 45.721,53.78 47.035,52.84C46.617,51.589 46.201,50.337 45.786,49.084C47.003,48.109 48.109,47.003 49.084,45.786C50.337,46.201 51.589,46.617 52.84,47.035C53.78,45.721 54.589,44.318 55.258,42.847C54.27,41.973 53.284,41.097 52.298,40.219C52.865,38.766 53.27,37.256 53.505,35.714C54.798,35.447 56.09,35.181 57.383,34.918C57.539,33.31 57.539,31.69 57.383,30.082C56.09,29.819 54.798,29.553 53.505,29.286C53.27,27.744 52.865,26.234 52.298,24.781C53.284,23.903 54.27,23.027 55.258,22.153C54.589,20.682 53.78,19.279 52.84,17.965C51.589,18.383 50.337,18.799 49.084,19.214C48.109,17.997 47.003,16.891 45.786,15.916C46.201,14.663 46.617,13.411 47.035,12.16C45.721,11.22 44.318,10.411 42.847,9.742C41.973,10.73 41.097,11.716 40.219,12.702C38.766,12.135 37.256,11.73 35.714,11.495C35.447,10.202 35.181,8.91 34.918,7.617ZM32.5,20.035C39.38,20.035 44.965,25.62 44.965,32.5C44.965,39.38 39.38,44.965 32.5,44.965C25.62,44.965 20.035,39.38 20.035,32.5C20.035,25.62 25.62,20.035 32.5,20.035Z" style="fill:rgb(126,126,126);"/>
        <path id="Cog1" class="Cog" d="M104.918,7.617C103.31,7.461 101.69,7.461 100.082,7.617C99.819,8.91 99.553,10.202 99.286,11.495C97.744,11.73 96.234,12.135 94.781,12.702C93.903,11.716 93.027,10.73 92.153,9.742C90.682,10.411 89.279,11.22 87.965,12.16C88.383,13.411 88.799,14.663 89.214,15.916C87.997,16.891 86.891,17.997 85.916,19.214C84.663,18.799 83.411,18.383 82.16,17.965C81.22,19.279 80.411,20.682 79.742,22.153C80.73,23.027 81.716,23.903 82.702,24.781C82.135,26.234 81.73,27.744 81.495,29.286C80.202,29.553 78.91,29.819 77.617,30.082C77.461,31.69 77.461,33.31 77.617,34.918C78.91,35.181 80.202,35.447 81.495,35.714C81.73,37.256 82.135,38.766 82.702,40.219C81.716,41.097 80.73,41.973 79.742,42.847C80.411,44.318 81.22,45.721 82.16,47.035C83.411,46.617 84.663,46.201 85.916,45.786C86.891,47.003 87.997,48.109 89.214,49.084C88.799,50.337 88.383,51.589 87.965,52.84C89.279,53.78 90.682,54.589 92.153,55.258C93.027,54.27 93.903,53.284 94.781,52.298C96.234,52.865 97.744,53.27 99.286,53.505C99.553,54.798 99.819,56.09 100.082,57.383C101.69,57.539 103.31,57.539 104.918,57.383C105.181,56.09 105.447,54.798 105.714,53.505C107.256,53.27 108.766,52.865 110.219,52.298C111.097,53.284 111.973,54.27 112.847,55.258C114.318,54.589 115.721,53.78 117.035,52.84C116.617,51.589 116.201,50.337 115.786,49.084C117.003,48.109 118.109,47.003 119.084,45.786C120.337,46.201 121.589,46.617 122.84,47.035C123.78,45.721 124.589,44.318 125.258,42.847C124.27,41.973 123.284,41.097 122.298,40.219C122.865,38.766 123.27,37.256 123.505,35.714C124.798,35.447 126.09,35.181 127.383,34.918C127.539,33.31 127.539,31.69 127.383,30.082C126.09,29.819 124.798,29.553 123.505,29.286C123.27,27.744 122.865,26.234 122.298,24.781C123.284,23.903 124.27,23.027 125.258,22.153C124.589,20.682 123.78,19.279 122.84,17.965C121.589,18.383 120.337,18.799 119.084,19.214C118.109,17.997 117.003,16.891 115.786,15.916C116.201,14.663 116.617,13.411 117.035,12.16C115.721,11.22 114.318,10.411 112.847,9.742C111.973,10.73 111.097,11.716 110.219,12.702C108.766,12.135 107.256,11.73 105.714,11.495C105.447,10.202 105.181,8.91 104.918,7.617ZM102.5,20.035C109.38,20.035 114.965,25.62 114.965,32.5C114.965,39.38 109.38,44.965 102.5,44.965C95.62,44.965 90.035,39.38 90.035,32.5C90.035,25.62 95.62,20.035 102.5,20.035Z" style="fill:rgb(126,126,126);"/>
        <path id="Cog2" class="Cog" d="M174.918,7.617C173.31,7.461 171.69,7.461 170.082,7.617C169.819,8.91 169.553,10.202 169.286,11.495C167.744,11.73 166.234,12.135 164.781,12.702C163.903,11.716 163.027,10.73 162.153,9.742C160.682,10.411 159.279,11.22 157.965,12.16C158.383,13.411 158.799,14.663 159.214,15.916C157.997,16.891 156.891,17.997 155.916,19.214C154.663,18.799 153.411,18.383 152.16,17.965C151.22,19.279 150.411,20.682 149.742,22.153C150.73,23.027 151.716,23.903 152.702,24.781C152.135,26.234 151.73,27.744 151.495,29.286C150.202,29.553 148.91,29.819 147.617,30.082C147.461,31.69 147.461,33.31 147.617,34.918C148.91,35.181 150.202,35.447 151.495,35.714C151.73,37.256 152.135,38.766 152.702,40.219C151.716,41.097 150.73,41.973 149.742,42.847C150.411,44.318 151.22,45.721 152.16,47.035C153.411,46.617 154.663,46.201 155.916,45.786C156.891,47.003 157.997,48.109 159.214,49.084C158.799,50.337 158.383,51.589 157.965,52.84C159.279,53.78 160.682,54.589 162.153,55.258C163.027,54.27 163.903,53.284 164.781,52.298C166.234,52.865 167.744,53.27 169.286,53.505C169.553,54.798 169.819,56.09 170.082,57.383C171.69,57.539 173.31,57.539 174.918,57.383C175.181,56.09 175.447,54.798 175.714,53.505C177.256,53.27 178.766,52.865 180.219,52.298C181.097,53.284 181.973,54.27 182.847,55.258C184.318,54.589 185.721,53.78 187.035,52.84C186.617,51.589 186.201,50.337 185.786,49.084C187.003,48.109 188.109,47.003 189.084,45.786C190.337,46.201 191.589,46.617 192.84,47.035C193.78,45.721 194.589,44.318 195.258,42.847C194.27,41.973 193.284,41.097 192.298,40.219C192.865,38.766 193.27,37.256 193.505,35.714C194.798,35.447 196.09,35.181 197.383,34.918C197.539,33.31 197.539,31.69 197.383,30.082C196.09,29.819 194.798,29.553 193.505,29.286C193.27,27.744 192.865,26.234 192.298,24.781C193.284,23.903 194.27,23.027 195.258,22.153C194.589,20.682 193.78,19.279 192.84,17.965C191.589,18.383 190.337,18.799 189.084,19.214C188.109,17.997 187.003,16.891 185.786,15.916C186.201,14.663 186.617,13.411 187.035,12.16C185.721,11.22 184.318,10.411 182.847,9.742C181.973,10.73 181.097,11.716 180.219,12.702C178.766,12.135 177.256,11.73 175.714,11.495C175.447,10.202 175.181,8.91 174.918,7.617ZM172.5,20.035C179.38,20.035 184.965,25.62 184.965,32.5C184.965,39.38 179.38,44.965 172.5,44.965C165.62,44.965 160.035,39.38 160.035,32.5C160.035,25.62 165.62,20.035 172.5,20.035Z" style="fill:rgb(126,126,126);"/>
        <path id="Cog3" class="Cog" d="M244.918,7.617C243.31,7.461 241.69,7.461 240.082,7.617C239.819,8.91 239.553,10.202 239.286,11.495C237.744,11.73 236.234,12.135 234.781,12.702C233.903,11.716 233.027,10.73 232.153,9.742C230.682,10.411 229.279,11.22 227.965,12.16C228.383,13.411 228.799,14.663 229.214,15.916C227.997,16.891 226.891,17.997 225.916,19.214C224.663,18.799 223.411,18.383 222.16,17.965C221.22,19.279 220.411,20.682 219.742,22.153C220.73,23.027 221.716,23.903 222.702,24.781C222.135,26.234 221.73,27.744 221.495,29.286C220.202,29.553 218.91,29.819 217.617,30.082C217.461,31.69 217.461,33.31 217.617,34.918C218.91,35.181 220.202,35.447 221.495,35.714C221.73,37.256 222.135,38.766 222.702,40.219C221.716,41.097 220.73,41.973 219.742,42.847C220.411,44.318 221.22,45.721 222.16,47.035C223.411,46.617 224.663,46.201 225.916,45.786C226.891,47.003 227.997,48.109 229.214,49.084C228.799,50.337 228.383,51.589 227.965,52.84C229.279,53.78 230.682,54.589 232.153,55.258C233.027,54.27 233.903,53.284 234.781,52.298C236.234,52.865 237.744,53.27 239.286,53.505C239.553,54.798 239.819,56.09 240.082,57.383C241.69,57.539 243.31,57.539 244.918,57.383C245.181,56.09 245.447,54.798 245.714,53.505C247.256,53.27 248.766,52.865 250.219,52.298C251.097,53.284 251.973,54.27 252.847,55.258C254.318,54.589 255.721,53.78 257.035,52.84C256.617,51.589 256.201,50.337 255.786,49.084C257.003,48.109 258.109,47.003 259.084,45.786C260.337,46.201 261.589,46.617 262.84,47.035C263.78,45.721 264.589,44.318 265.258,42.847C264.27,41.973 263.284,41.097 262.298,40.219C262.865,38.766 263.27,37.256 263.505,35.714C264.798,35.447 266.09,35.181 267.383,34.918C267.539,33.31 267.539,31.69 267.383,30.082C266.09,29.819 264.798,29.553 263.505,29.286C263.27,27.744 262.865,26.234 262.298,24.781C263.284,23.903 264.27,23.027 265.258,22.153C264.589,20.682 263.78,19.279 262.84,17.965C261.589,18.383 260.337,18.799 259.084,19.214C258.109,17.997 257.003,16.891 255.786,15.916C256.201,14.663 256.617,13.411 257.035,12.16C255.721,11.22 254.318,10.411 252.847,9.742C251.973,10.73 251.097,11.716 250.219,12.702C248.766,12.135 247.256,11.73 245.714,11.495C245.447,10.202 245.181,8.91 244.918,7.617ZM242.5,20.035C249.38,20.035 254.965,25.62 254.965,32.5C254.965,39.38 249.38,44.965 242.5,44.965C235.62,44.965 230.035,39.38 230.035,32.5C230.035,25.62 235.62,20.035 242.5,20.035Z" style="fill:rgb(126,126,126);"/>
        <path id="Cog4" class="Cog" d="M314.918,7.617C313.31,7.461 311.69,7.461 310.082,7.617C309.819,8.91 309.553,10.202 309.286,11.495C307.744,11.73 306.234,12.135 304.781,12.702C303.903,11.716 303.027,10.73 302.153,9.742C300.682,10.411 299.279,11.22 297.965,12.16C298.383,13.411 298.799,14.663 299.214,15.916C297.997,16.891 296.891,17.997 295.916,19.214C294.663,18.799 293.411,18.383 292.16,17.965C291.22,19.279 290.411,20.682 289.742,22.153C290.73,23.027 291.716,23.903 292.702,24.781C292.135,26.234 291.73,27.744 291.495,29.286C290.202,29.553 288.91,29.819 287.617,30.082C287.461,31.69 287.461,33.31 287.617,34.918C288.91,35.181 290.202,35.447 291.495,35.714C291.73,37.256 292.135,38.766 292.702,40.219C291.716,41.097 290.73,41.973 289.742,42.847C290.411,44.318 291.22,45.721 292.16,47.035C293.411,46.617 294.663,46.201 295.916,45.786C296.891,47.003 297.997,48.109 299.214,49.084C298.799,50.337 298.383,51.589 297.965,52.84C299.279,53.78 300.682,54.589 302.153,55.258C303.027,54.27 303.903,53.284 304.781,52.298C306.234,52.865 307.744,53.27 309.286,53.505C309.553,54.798 309.819,56.09 310.082,57.383C311.69,57.539 313.31,57.539 314.918,57.383C315.181,56.09 315.447,54.798 315.714,53.505C317.256,53.27 318.766,52.865 320.219,52.298C321.097,53.284 321.973,54.27 322.847,55.258C324.318,54.589 325.721,53.78 327.035,52.84C326.617,51.589 326.201,50.337 325.786,49.084C327.003,48.109 328.109,47.003 329.084,45.786C330.337,46.201 331.589,46.617 332.84,47.035C333.78,45.721 334.589,44.318 335.258,42.847C334.27,41.973 333.284,41.097 332.298,40.219C332.865,38.766 333.27,37.256 333.505,35.714C334.798,35.447 336.09,35.181 337.383,34.918C337.539,33.31 337.539,31.69 337.383,30.082C336.09,29.819 334.798,29.553 333.505,29.286C333.27,27.744 332.865,26.234 332.298,24.781C333.284,23.903 334.27,23.027 335.258,22.153C334.589,20.682 333.78,19.279 332.84,17.965C331.589,18.383 330.337,18.799 329.084,19.214C328.109,17.997 327.003,16.891 325.786,15.916C326.201,14.663 326.617,13.411 327.035,12.16C325.721,11.22 324.318,10.411 322.847,9.742C321.973,10.73 321.097,11.716 320.219,12.702C318.766,12.135 317.256,11.73 315.714,11.495C315.447,10.202 315.181,8.91 314.918,7.617ZM312.5,20.035C319.38,20.035 324.965,25.62 324.965,32.5C324.965,39.38 319.38,44.965 312.5,44.965C305.62,44.965 300.035,39.38 300.035,32.5C300.035,25.62 305.62,20.035 312.5,20.035Z" style="fill:rgb(126,126,126);"/>
    </g>
</svg>
