<?xml version="1.0" encoding="UTF-8" standalone="no"?>
<!DOCTYPE svg PUBLIC "-//W3C//DTD SVG 1.1//EN" "http://www.w3.org/Graphics/SVG/1.1/DTD/svg11.dtd">
<svg width="344" height="auto" viewBox="0 0 344 254" version="1.1" xmlns="http://www.w3.org/2000/svg" xmlns:xlink="http://www.w3.org/1999/xlink" xml:space="preserve" xmlns:serif="http://www.serif.com/" style="fill-rule:evenodd;clip-rule:evenodd;stroke-linejoin:round;stroke-miterlimit:2;">
    <g>
        <g id="conveyor-belt">
            <path d="M30.353,254C13.601,254 0,239.661 0,222C0,204.339 13.601,190 30.353,190L313.647,190C330.399,190 344,204.339 344,222C344,239.661 330.399,254 313.647,254L30.353,254Z" style="fill:rgb(229,229,229);"/>
            <path d="M30.353,254C13.601,254 0,239.661 0,222C0,204.339 13.601,190 30.353,190L313.647,190C330.399,190 344,204.339 344,222C344,239.661 330.399,254 313.647,254L30.353,254ZM30.353,249L313.647,249C327.715,249 339,236.831 339,222C339,207.169 327.715,195 313.647,195L30.353,195C16.285,195 5,207.169 5,222C5,236.831 16.285,249 30.353,249Z" style="fill:rgb(128,128,128);"/>
            <g id="cogs">
                <path d="M34.418,197.117C32.81,196.961 31.19,196.961 29.582,197.117C29.319,198.41 29.053,199.702 28.786,200.995C27.244,201.23 25.734,201.635 24.281,202.202C23.403,201.216 22.527,200.23 21.653,199.242C20.182,199.911 18.779,200.72 17.465,201.66C17.883,202.911 18.299,204.163 18.714,205.416C17.497,206.391 16.391,207.497 15.416,208.714C14.163,208.299 12.911,207.883 11.66,207.465C10.72,208.779 9.911,210.182 9.242,211.653C10.23,212.527 11.216,213.403 12.202,214.281C11.635,215.734 11.23,217.244 10.995,218.786C9.702,219.053 8.41,219.319 7.117,219.582C6.961,221.19 6.961,222.81 7.117,224.418C8.41,224.681 9.702,224.947 10.995,225.214C11.23,226.756 11.635,228.266 12.202,229.719C11.216,230.597 10.23,231.473 9.242,232.347C9.911,233.818 10.72,235.221 11.66,236.535C12.911,236.117 14.163,235.701 15.416,235.286C16.391,236.503 17.497,237.609 18.714,238.584C18.299,239.837 17.883,241.089 17.465,242.34C18.779,243.28 20.182,244.089 21.653,244.758C22.527,243.77 23.403,242.784 24.281,241.798C25.734,242.365 27.244,242.77 28.786,243.005C29.053,244.298 29.319,245.59 29.582,246.883C31.19,247.039 32.81,247.039 34.418,246.883C34.681,245.59 34.947,244.298 35.214,243.005C36.756,242.77 38.266,242.365 39.719,241.798C40.597,242.784 41.473,243.77 42.347,244.758C43.818,244.089 45.221,243.28 46.535,242.34C46.117,241.089 45.701,239.837 45.286,238.584C46.503,237.609 47.609,236.503 48.584,235.286C49.837,235.701 51.089,236.117 52.34,236.535C53.28,235.221 54.089,233.818 54.758,232.347C53.77,231.473 52.784,230.597 51.798,229.719C52.365,228.266 52.77,226.756 53.005,225.214C54.298,224.947 55.59,224.681 56.883,224.418C57.039,222.81 57.039,221.19 56.883,219.582C55.59,219.319 54.298,219.053 53.005,218.786C52.77,217.244 52.365,215.734 51.798,214.281C52.784,213.403 53.77,212.527 54.758,211.653C54.089,210.182 53.28,208.779 52.34,207.465C51.089,207.883 49.837,208.299 48.584,208.714C47.609,207.497 46.503,206.391 45.286,205.416C45.701,204.163 46.117,202.911 46.535,201.66C45.221,200.72 43.818,199.911 42.347,199.242C41.473,200.23 40.597,201.216 39.719,202.202C38.266,201.635 36.756,201.23 35.214,200.995C34.947,199.702 34.681,198.41 34.418,197.117ZM32,209.535C38.88,209.535 44.465,215.12 44.465,222C44.465,228.88 38.88,234.465 32,234.465C25.12,234.465 19.535,228.88 19.535,222C19.535,215.12 25.12,209.535 32,209.535Z" style="fill:rgb(126,126,126);"/>
                <path d="M104.418,197.117C102.81,196.961 101.19,196.961 99.582,197.117C99.319,198.41 99.053,199.702 98.786,200.995C97.244,201.23 95.734,201.635 94.281,202.202C93.403,201.216 92.527,200.23 91.653,199.242C90.182,199.911 88.779,200.72 87.465,201.66C87.883,202.911 88.299,204.163 88.714,205.416C87.497,206.391 86.391,207.497 85.416,208.714C84.163,208.299 82.911,207.883 81.66,207.465C80.72,208.779 79.911,210.182 79.242,211.653C80.23,212.527 81.216,213.403 82.202,214.281C81.635,215.734 81.23,217.244 80.995,218.786C79.702,219.053 78.41,219.319 77.117,219.582C76.961,221.19 76.961,222.81 77.117,224.418C78.41,224.681 79.702,224.947 80.995,225.214C81.23,226.756 81.635,228.266 82.202,229.719C81.216,230.597 80.23,231.473 79.242,232.347C79.911,233.818 80.72,235.221 81.66,236.535C82.911,236.117 84.163,235.701 85.416,235.286C86.391,236.503 87.497,237.609 88.714,238.584C88.299,239.837 87.883,241.089 87.465,242.34C88.779,243.28 90.182,244.089 91.653,244.758C92.527,243.77 93.403,242.784 94.281,241.798C95.734,242.365 97.244,242.77 98.786,243.005C99.053,244.298 99.319,245.59 99.582,246.883C101.19,247.039 102.81,247.039 104.418,246.883C104.681,245.59 104.947,244.298 105.214,243.005C106.756,242.77 108.266,242.365 109.719,241.798C110.597,242.784 111.473,243.77 112.347,244.758C113.818,244.089 115.221,243.28 116.535,242.34C116.117,241.089 115.701,239.837 115.286,238.584C116.503,237.609 117.609,236.503 118.584,235.286C119.837,235.701 121.089,236.117 122.34,236.535C123.28,235.221 124.089,233.818 124.758,232.347C123.77,231.473 122.784,230.597 121.798,229.719C122.365,228.266 122.77,226.756 123.005,225.214C124.298,224.947 125.59,224.681 126.883,224.418C127.039,222.81 127.039,221.19 126.883,219.582C125.59,219.319 124.298,219.053 123.005,218.786C122.77,217.244 122.365,215.734 121.798,214.281C122.784,213.403 123.77,212.527 124.758,211.653C124.089,210.182 123.28,208.779 122.34,207.465C121.089,207.883 119.837,208.299 118.584,208.714C117.609,207.497 116.503,206.391 115.286,205.416C115.701,204.163 116.117,202.911 116.535,201.66C115.221,200.72 113.818,199.911 112.347,199.242C111.473,200.23 110.597,201.216 109.719,202.202C108.266,201.635 106.756,201.23 105.214,200.995C104.947,199.702 104.681,198.41 104.418,197.117ZM102,209.535C108.88,209.535 114.465,215.12 114.465,222C114.465,228.88 108.88,234.465 102,234.465C95.12,234.465 89.535,228.88 89.535,222C89.535,215.12 95.12,209.535 102,209.535Z" style="fill:rgb(126,126,126);"/>
                <path d="M174.418,197.117C172.81,196.961 171.19,196.961 169.582,197.117C169.319,198.41 169.053,199.702 168.786,200.995C167.244,201.23 165.734,201.635 164.281,202.202C163.403,201.216 162.527,200.23 161.653,199.242C160.182,199.911 158.779,200.72 157.465,201.66C157.883,202.911 158.299,204.163 158.714,205.416C157.497,206.391 156.391,207.497 155.416,208.714C154.163,208.299 152.911,207.883 151.66,207.465C150.72,208.779 149.911,210.182 149.242,211.653C150.23,212.527 151.216,213.403 152.202,214.281C151.635,215.734 151.23,217.244 150.995,218.786C149.702,219.053 148.41,219.319 147.117,219.582C146.961,221.19 146.961,222.81 147.117,224.418C148.41,224.681 149.702,224.947 150.995,225.214C151.23,226.756 151.635,228.266 152.202,229.719C151.216,230.597 150.23,231.473 149.242,232.347C149.911,233.818 150.72,235.221 151.66,236.535C152.911,236.117 154.163,235.701 155.416,235.286C156.391,236.503 157.497,237.609 158.714,238.584C158.299,239.837 157.883,241.089 157.465,242.34C158.779,243.28 160.182,244.089 161.653,244.758C162.527,243.77 163.403,242.784 164.281,241.798C165.734,242.365 167.244,242.77 168.786,243.005C169.053,244.298 169.319,245.59 169.582,246.883C171.19,247.039 172.81,247.039 174.418,246.883C174.681,245.59 174.947,244.298 175.214,243.005C176.756,242.77 178.266,242.365 179.719,241.798C180.597,242.784 181.473,243.77 182.347,244.758C183.818,244.089 185.221,243.28 186.535,242.34C186.117,241.089 185.701,239.837 185.286,238.584C186.503,237.609 187.609,236.503 188.584,235.286C189.837,235.701 191.089,236.117 192.34,236.535C193.28,235.221 194.089,233.818 194.758,232.347C193.77,231.473 192.784,230.597 191.798,229.719C192.365,228.266 192.77,226.756 193.005,225.214C194.298,224.947 195.59,224.681 196.883,224.418C197.039,222.81 197.039,221.19 196.883,219.582C195.59,219.319 194.298,219.053 193.005,218.786C192.77,217.244 192.365,215.734 191.798,214.281C192.784,213.403 193.77,212.527 194.758,211.653C194.089,210.182 193.28,208.779 192.34,207.465C191.089,207.883 189.837,208.299 188.584,208.714C187.609,207.497 186.503,206.391 185.286,205.416C185.701,204.163 186.117,202.911 186.535,201.66C185.221,200.72 183.818,199.911 182.347,199.242C181.473,200.23 180.597,201.216 179.719,202.202C178.266,201.635 176.756,201.23 175.214,200.995C174.947,199.702 174.681,198.41 174.418,197.117ZM172,209.535C178.88,209.535 184.465,215.12 184.465,222C184.465,228.88 178.88,234.465 172,234.465C165.12,234.465 159.535,228.88 159.535,222C159.535,215.12 165.12,209.535 172,209.535Z" style="fill:rgb(126,126,126);"/>
                <path d="M244.418,197.117C242.81,196.961 241.19,196.961 239.582,197.117C239.319,198.41 239.053,199.702 238.786,200.995C237.244,201.23 235.734,201.635 234.281,202.202C233.403,201.216 232.527,200.23 231.653,199.242C230.182,199.911 228.779,200.72 227.465,201.66C227.883,202.911 228.299,204.163 228.714,205.416C227.497,206.391 226.391,207.497 225.416,208.714C224.163,208.299 222.911,207.883 221.66,207.465C220.72,208.779 219.911,210.182 219.242,211.653C220.23,212.527 221.216,213.403 222.202,214.281C221.635,215.734 221.23,217.244 220.995,218.786C219.702,219.053 218.41,219.319 217.117,219.582C216.961,221.19 216.961,222.81 217.117,224.418C218.41,224.681 219.702,224.947 220.995,225.214C221.23,226.756 221.635,228.266 222.202,229.719C221.216,230.597 220.23,231.473 219.242,232.347C219.911,233.818 220.72,235.221 221.66,236.535C222.911,236.117 224.163,235.701 225.416,235.286C226.391,236.503 227.497,237.609 228.714,238.584C228.299,239.837 227.883,241.089 227.465,242.34C228.779,243.28 230.182,244.089 231.653,244.758C232.527,243.77 233.403,242.784 234.281,241.798C235.734,242.365 237.244,242.77 238.786,243.005C239.053,244.298 239.319,245.59 239.582,246.883C241.19,247.039 242.81,247.039 244.418,246.883C244.681,245.59 244.947,244.298 245.214,243.005C246.756,242.77 248.266,242.365 249.719,241.798C250.597,242.784 251.473,243.77 252.347,244.758C253.818,244.089 255.221,243.28 256.535,242.34C256.117,241.089 255.701,239.837 255.286,238.584C256.503,237.609 257.609,236.503 258.584,235.286C259.837,235.701 261.089,236.117 262.34,236.535C263.28,235.221 264.089,233.818 264.758,232.347C263.77,231.473 262.784,230.597 261.798,229.719C262.365,228.266 262.77,226.756 263.005,225.214C264.298,224.947 265.59,224.681 266.883,224.418C267.039,222.81 267.039,221.19 266.883,219.582C265.59,219.319 264.298,219.053 263.005,218.786C262.77,217.244 262.365,215.734 261.798,214.281C262.784,213.403 263.77,212.527 264.758,211.653C264.089,210.182 263.28,208.779 262.34,207.465C261.089,207.883 259.837,208.299 258.584,208.714C257.609,207.497 256.503,206.391 255.286,205.416C255.701,204.163 256.117,202.911 256.535,201.66C255.221,200.72 253.818,199.911 252.347,199.242C251.473,200.23 250.597,201.216 249.719,202.202C248.266,201.635 246.756,201.23 245.214,200.995C244.947,199.702 244.681,198.41 244.418,197.117ZM242,209.535C248.88,209.535 254.465,215.12 254.465,222C254.465,228.88 248.88,234.465 242,234.465C235.12,234.465 229.535,228.88 229.535,222C229.535,215.12 235.12,209.535 242,209.535Z" style="fill:rgb(126,126,126);"/>
                <path d="M314.418,197.117C312.81,196.961 311.19,196.961 309.582,197.117C309.319,198.41 309.053,199.702 308.786,200.995C307.244,201.23 305.734,201.635 304.281,202.202C303.403,201.216 302.527,200.23 301.653,199.242C300.182,199.911 298.779,200.72 297.465,201.66C297.883,202.911 298.299,204.163 298.714,205.416C297.497,206.391 296.391,207.497 295.416,208.714C294.163,208.299 292.911,207.883 291.66,207.465C290.72,208.779 289.911,210.182 289.242,211.653C290.23,212.527 291.216,213.403 292.202,214.281C291.635,215.734 291.23,217.244 290.995,218.786C289.702,219.053 288.41,219.319 287.117,219.582C286.961,221.19 286.961,222.81 287.117,224.418C288.41,224.681 289.702,224.947 290.995,225.214C291.23,226.756 291.635,228.266 292.202,229.719C291.216,230.597 290.23,231.473 289.242,232.347C289.911,233.818 290.72,235.221 291.66,236.535C292.911,236.117 294.163,235.701 295.416,235.286C296.391,236.503 297.497,237.609 298.714,238.584C298.299,239.837 297.883,241.089 297.465,242.34C298.779,243.28 300.182,244.089 301.653,244.758C302.527,243.77 303.403,242.784 304.281,241.798C305.734,242.365 307.244,242.77 308.786,243.005C309.053,244.298 309.319,245.59 309.582,246.883C311.19,247.039 312.81,247.039 314.418,246.883C314.681,245.59 314.947,244.298 315.214,243.005C316.756,242.77 318.266,242.365 319.719,241.798C320.597,242.784 321.473,243.77 322.347,244.758C323.818,244.089 325.221,243.28 326.535,242.34C326.117,241.089 325.701,239.837 325.286,238.584C326.503,237.609 327.609,236.503 328.584,235.286C329.837,235.701 331.089,236.117 332.34,236.535C333.28,235.221 334.089,233.818 334.758,232.347C333.77,231.473 332.784,230.597 331.798,229.719C332.365,228.266 332.77,226.756 333.005,225.214C334.298,224.947 335.59,224.681 336.883,224.418C337.039,222.81 337.039,221.19 336.883,219.582C335.59,219.319 334.298,219.053 333.005,218.786C332.77,217.244 332.365,215.734 331.798,214.281C332.784,213.403 333.77,212.527 334.758,211.653C334.089,210.182 333.28,208.779 332.34,207.465C331.089,207.883 329.837,208.299 328.584,208.714C327.609,207.497 326.503,206.391 325.286,205.416C325.701,204.163 326.117,202.911 326.535,201.66C325.221,200.72 323.818,199.911 322.347,199.242C321.473,200.23 320.597,201.216 319.719,202.202C318.266,201.635 316.756,201.23 315.214,200.995C314.947,199.702 314.681,198.41 314.418,197.117ZM312,209.535C318.88,209.535 324.465,215.12 324.465,222C324.465,228.88 318.88,234.465 312,234.465C305.12,234.465 299.535,228.88 299.535,222C299.535,215.12 305.12,209.535 312,209.535Z" style="fill:rgb(126,126,126);"/>
            </g>
        </g>
        <g id="block">
            <path d="M122,8.634c0,-4.765 -3.869,-8.634 -8.634,-8.634l-72.732,0c-4.765,0 -8.634,3.869 -8.634,8.634l0,72.732c0,4.765 3.869,8.634 8.634,8.634l72.732,-0c4.765,-0 8.634,-3.869 8.634,-8.634l0,-72.732Z" style="fill:rgb(241,241,241);"/>
            <path d="M122,8.634l0,72.732c0,4.765 -3.869,8.634 -8.634,8.634l-72.732,-0c-4.765,-0 -8.634,-3.869 -8.634,-8.634l0,-72.732c0,-4.765 3.869,-8.634 8.634,-8.634l72.732,0c4.765,0 8.634,3.869 8.634,8.634Zm-5,0c0,-2.006 -1.628,-3.634 -3.634,-3.634l-72.732,0c-2.006,0 -3.634,1.628 -3.634,3.634l0,72.732c0,2.006 1.628,3.634 3.634,3.634l72.732,-0c2.006,-0 3.634,-1.628 3.634,-3.634l0,-72.732Z" style="fill:rgb(152,152,152);"/>
        </g>
    </g>
</svg>
