<?xml version="1.0" encoding="UTF-8" standalone="no"?>
<!DOCTYPE svg PUBLIC "-//W3C//DTD SVG 1.1//EN" "http://www.w3.org/Graphics/SVG/1.1/DTD/svg11.dtd">
<svg width="100%" height="100%" viewBox="0 0 344 254" version="1.1" xmlns="http://www.w3.org/2000/svg" xmlns:xlink="http://www.w3.org/1999/xlink" xml:space="preserve" xmlns:serif="http://www.serif.com/" style="fill-rule:evenodd;clip-rule:evenodd;stroke-linejoin:round;stroke-miterlimit:2;">
    <g>
        <g id="conveyor-belt">
            <path d="M30.353,254c-16.752,0 -30.353,-14.339 -30.353,-32c0,-17.661 13.601,-32 30.353,-32l283.294,0c16.752,0 30.353,14.339 30.353,32c0,17.661 -13.601,32 -30.353,32l-283.294,0Z" style="fill:rgb(229,229,229);"/>
            <path d="M30.353,254c-16.752,0 -30.353,-14.339 -30.353,-32c0,-17.661 13.601,-32 30.353,-32l283.294,0c16.752,0 30.353,14.339 30.353,32c0,17.661 -13.601,32 -30.353,32l-283.294,0Zm-0,-5l283.294,0c14.068,0 25.353,-12.169 25.353,-27c0,-14.831 -11.285,-27 -25.353,-27l-283.294,0c-14.068,0 -25.353,12.169 -25.353,27c-0,14.831 11.285,27 25.353,27Z" style="fill:rgb(128,128,128);"/>
            <g id="cogs">
                <path d="M34.418,197.117c-1.608,-0.156 -3.228,-0.156 -4.836,0c-0.263,1.293 -0.529,2.585 -0.796,3.878c-1.542,0.235 -3.052,0.64 -4.505,1.207c-0.878,-0.986 -1.754,-1.972 -2.628,-2.96c-1.471,0.669 -2.874,1.478 -4.188,2.418c0.418,1.251 0.834,2.503 1.249,3.756c-1.217,0.975 -2.323,2.081 -3.298,3.298c-1.253,-0.415 -2.505,-0.831 -3.756,-1.249c-0.94,1.314 -1.749,2.717 -2.418,4.188c0.988,0.874 1.974,1.75 2.96,2.628c-0.567,1.453 -0.972,2.963 -1.207,4.505c-1.293,0.267 -2.585,0.533 -3.878,0.796c-0.156,1.608 -0.156,3.228 0,4.836c1.293,0.263 2.585,0.529 3.878,0.796c0.235,1.542 0.64,3.052 1.207,4.505c-0.986,0.878 -1.972,1.754 -2.96,2.628c0.669,1.471 1.478,2.874 2.418,4.188c1.251,-0.418 2.503,-0.834 3.756,-1.249c0.975,1.217 2.081,2.323 3.298,3.298c-0.415,1.253 -0.831,2.505 -1.249,3.756c1.314,0.94 2.717,1.749 4.188,2.418c0.874,-0.988 1.75,-1.974 2.628,-2.96c1.453,0.567 2.963,0.972 4.505,1.207c0.267,1.293 0.533,2.585 0.796,3.878c1.608,0.156 3.228,0.156 4.836,-0c0.263,-1.293 0.529,-2.585 0.796,-3.878c1.542,-0.235 3.052,-0.64 4.505,-1.207c0.878,0.986 1.754,1.972 2.628,2.96c1.471,-0.669 2.874,-1.478 4.188,-2.418c-0.418,-1.251 -0.834,-2.503 -1.249,-3.756c1.217,-0.975 2.323,-2.081 3.298,-3.298c1.253,0.415 2.505,0.831 3.756,1.249c0.94,-1.314 1.749,-2.717 2.418,-4.188c-0.988,-0.874 -1.974,-1.75 -2.96,-2.628c0.567,-1.453 0.972,-2.963 1.207,-4.505c1.293,-0.267 2.585,-0.533 3.878,-0.796c0.156,-1.608 0.156,-3.228 -0,-4.836c-1.293,-0.263 -2.585,-0.529 -3.878,-0.796c-0.235,-1.542 -0.64,-3.052 -1.207,-4.505c0.986,-0.878 1.972,-1.754 2.96,-2.628c-0.669,-1.471 -1.478,-2.874 -2.418,-4.188c-1.251,0.418 -2.503,0.834 -3.756,1.249c-0.975,-1.217 -2.081,-2.323 -3.298,-3.298c0.415,-1.253 0.831,-2.505 1.249,-3.756c-1.314,-0.94 -2.717,-1.749 -4.188,-2.418c-0.874,0.988 -1.75,1.974 -2.628,2.96c-1.453,-0.567 -2.963,-0.972 -4.505,-1.207c-0.267,-1.293 -0.533,-2.585 -0.796,-3.878Zm-2.418,12.418c6.88,0 12.465,5.585 12.465,12.465c-0,6.88 -5.585,12.465 -12.465,12.465c-6.88,-0 -12.465,-5.585 -12.465,-12.465c0,-6.88 5.585,-12.465 12.465,-12.465Z" style="fill:rgb(126,126,126);"/>
                <path d="M104.418,197.117c-1.608,-0.156 -3.228,-0.156 -4.836,0c-0.263,1.293 -0.529,2.585 -0.796,3.878c-1.542,0.235 -3.052,0.64 -4.505,1.207c-0.878,-0.986 -1.754,-1.972 -2.628,-2.96c-1.471,0.669 -2.874,1.478 -4.188,2.418c0.418,1.251 0.834,2.503 1.249,3.756c-1.217,0.975 -2.323,2.081 -3.298,3.298c-1.253,-0.415 -2.505,-0.831 -3.756,-1.249c-0.94,1.314 -1.749,2.717 -2.418,4.188c0.988,0.874 1.974,1.75 2.96,2.628c-0.567,1.453 -0.972,2.963 -1.207,4.505c-1.293,0.267 -2.585,0.533 -3.878,0.796c-0.156,1.608 -0.156,3.228 0,4.836c1.293,0.263 2.585,0.529 3.878,0.796c0.235,1.542 0.64,3.052 1.207,4.505c-0.986,0.878 -1.972,1.754 -2.96,2.628c0.669,1.471 1.478,2.874 2.418,4.188c1.251,-0.418 2.503,-0.834 3.756,-1.249c0.975,1.217 2.081,2.323 3.298,3.298c-0.415,1.253 -0.831,2.505 -1.249,3.756c1.314,0.94 2.717,1.749 4.188,2.418c0.874,-0.988 1.75,-1.974 2.628,-2.96c1.453,0.567 2.963,0.972 4.505,1.207c0.267,1.293 0.533,2.585 0.796,3.878c1.608,0.156 3.228,0.156 4.836,-0c0.263,-1.293 0.529,-2.585 0.796,-3.878c1.542,-0.235 3.052,-0.64 4.505,-1.207c0.878,0.986 1.754,1.972 2.628,2.96c1.471,-0.669 2.874,-1.478 4.188,-2.418c-0.418,-1.251 -0.834,-2.503 -1.249,-3.756c1.217,-0.975 2.323,-2.081 3.298,-3.298c1.253,0.415 2.505,0.831 3.756,1.249c0.94,-1.314 1.749,-2.717 2.418,-4.188c-0.988,-0.874 -1.974,-1.75 -2.96,-2.628c0.567,-1.453 0.972,-2.963 1.207,-4.505c1.293,-0.267 2.585,-0.533 3.878,-0.796c0.156,-1.608 0.156,-3.228 -0,-4.836c-1.293,-0.263 -2.585,-0.529 -3.878,-0.796c-0.235,-1.542 -0.64,-3.052 -1.207,-4.505c0.986,-0.878 1.972,-1.754 2.96,-2.628c-0.669,-1.471 -1.478,-2.874 -2.418,-4.188c-1.251,0.418 -2.503,0.834 -3.756,1.249c-0.975,-1.217 -2.081,-2.323 -3.298,-3.298c0.415,-1.253 0.831,-2.505 1.249,-3.756c-1.314,-0.94 -2.717,-1.749 -4.188,-2.418c-0.874,0.988 -1.75,1.974 -2.628,2.96c-1.453,-0.567 -2.963,-0.972 -4.505,-1.207c-0.267,-1.293 -0.533,-2.585 -0.796,-3.878Zm-2.418,12.418c6.88,0 12.465,5.585 12.465,12.465c-0,6.88 -5.585,12.465 -12.465,12.465c-6.88,-0 -12.465,-5.585 -12.465,-12.465c0,-6.88 5.585,-12.465 12.465,-12.465Z" style="fill:rgb(126,126,126);"/>
                <path d="M174.418,197.117c-1.608,-0.156 -3.228,-0.156 -4.836,0c-0.263,1.293 -0.529,2.585 -0.796,3.878c-1.542,0.235 -3.052,0.64 -4.505,1.207c-0.878,-0.986 -1.754,-1.972 -2.628,-2.96c-1.471,0.669 -2.874,1.478 -4.188,2.418c0.418,1.251 0.834,2.503 1.249,3.756c-1.217,0.975 -2.323,2.081 -3.298,3.298c-1.253,-0.415 -2.505,-0.831 -3.756,-1.249c-0.94,1.314 -1.749,2.717 -2.418,4.188c0.988,0.874 1.974,1.75 2.96,2.628c-0.567,1.453 -0.972,2.963 -1.207,4.505c-1.293,0.267 -2.585,0.533 -3.878,0.796c-0.156,1.608 -0.156,3.228 0,4.836c1.293,0.263 2.585,0.529 3.878,0.796c0.235,1.542 0.64,3.052 1.207,4.505c-0.986,0.878 -1.972,1.754 -2.96,2.628c0.669,1.471 1.478,2.874 2.418,4.188c1.251,-0.418 2.503,-0.834 3.756,-1.249c0.975,1.217 2.081,2.323 3.298,3.298c-0.415,1.253 -0.831,2.505 -1.249,3.756c1.314,0.94 2.717,1.749 4.188,2.418c0.874,-0.988 1.75,-1.974 2.628,-2.96c1.453,0.567 2.963,0.972 4.505,1.207c0.267,1.293 0.533,2.585 0.796,3.878c1.608,0.156 3.228,0.156 4.836,-0c0.263,-1.293 0.529,-2.585 0.796,-3.878c1.542,-0.235 3.052,-0.64 4.505,-1.207c0.878,0.986 1.754,1.972 2.628,2.96c1.471,-0.669 2.874,-1.478 4.188,-2.418c-0.418,-1.251 -0.834,-2.503 -1.249,-3.756c1.217,-0.975 2.323,-2.081 3.298,-3.298c1.253,0.415 2.505,0.831 3.756,1.249c0.94,-1.314 1.749,-2.717 2.418,-4.188c-0.988,-0.874 -1.974,-1.75 -2.96,-2.628c0.567,-1.453 0.972,-2.963 1.207,-4.505c1.293,-0.267 2.585,-0.533 3.878,-0.796c0.156,-1.608 0.156,-3.228 -0,-4.836c-1.293,-0.263 -2.585,-0.529 -3.878,-0.796c-0.235,-1.542 -0.64,-3.052 -1.207,-4.505c0.986,-0.878 1.972,-1.754 2.96,-2.628c-0.669,-1.471 -1.478,-2.874 -2.418,-4.188c-1.251,0.418 -2.503,0.834 -3.756,1.249c-0.975,-1.217 -2.081,-2.323 -3.298,-3.298c0.415,-1.253 0.831,-2.505 1.249,-3.756c-1.314,-0.94 -2.717,-1.749 -4.188,-2.418c-0.874,0.988 -1.75,1.974 -2.628,2.96c-1.453,-0.567 -2.963,-0.972 -4.505,-1.207c-0.267,-1.293 -0.533,-2.585 -0.796,-3.878Zm-2.418,12.418c6.88,0 12.465,5.585 12.465,12.465c-0,6.88 -5.585,12.465 -12.465,12.465c-6.88,-0 -12.465,-5.585 -12.465,-12.465c0,-6.88 5.585,-12.465 12.465,-12.465Z" style="fill:rgb(126,126,126);"/>
                <path d="M244.418,197.117c-1.608,-0.156 -3.228,-0.156 -4.836,0c-0.263,1.293 -0.529,2.585 -0.796,3.878c-1.542,0.235 -3.052,0.64 -4.505,1.207c-0.878,-0.986 -1.754,-1.972 -2.628,-2.96c-1.471,0.669 -2.874,1.478 -4.188,2.418c0.418,1.251 0.834,2.503 1.249,3.756c-1.217,0.975 -2.323,2.081 -3.298,3.298c-1.253,-0.415 -2.505,-0.831 -3.756,-1.249c-0.94,1.314 -1.749,2.717 -2.418,4.188c0.988,0.874 1.974,1.75 2.96,2.628c-0.567,1.453 -0.972,2.963 -1.207,4.505c-1.293,0.267 -2.585,0.533 -3.878,0.796c-0.156,1.608 -0.156,3.228 0,4.836c1.293,0.263 2.585,0.529 3.878,0.796c0.235,1.542 0.64,3.052 1.207,4.505c-0.986,0.878 -1.972,1.754 -2.96,2.628c0.669,1.471 1.478,2.874 2.418,4.188c1.251,-0.418 2.503,-0.834 3.756,-1.249c0.975,1.217 2.081,2.323 3.298,3.298c-0.415,1.253 -0.831,2.505 -1.249,3.756c1.314,0.94 2.717,1.749 4.188,2.418c0.874,-0.988 1.75,-1.974 2.628,-2.96c1.453,0.567 2.963,0.972 4.505,1.207c0.267,1.293 0.533,2.585 0.796,3.878c1.608,0.156 3.228,0.156 4.836,-0c0.263,-1.293 0.529,-2.585 0.796,-3.878c1.542,-0.235 3.052,-0.64 4.505,-1.207c0.878,0.986 1.754,1.972 2.628,2.96c1.471,-0.669 2.874,-1.478 4.188,-2.418c-0.418,-1.251 -0.834,-2.503 -1.249,-3.756c1.217,-0.975 2.323,-2.081 3.298,-3.298c1.253,0.415 2.505,0.831 3.756,1.249c0.94,-1.314 1.749,-2.717 2.418,-4.188c-0.988,-0.874 -1.974,-1.75 -2.96,-2.628c0.567,-1.453 0.972,-2.963 1.207,-4.505c1.293,-0.267 2.585,-0.533 3.878,-0.796c0.156,-1.608 0.156,-3.228 -0,-4.836c-1.293,-0.263 -2.585,-0.529 -3.878,-0.796c-0.235,-1.542 -0.64,-3.052 -1.207,-4.505c0.986,-0.878 1.972,-1.754 2.96,-2.628c-0.669,-1.471 -1.478,-2.874 -2.418,-4.188c-1.251,0.418 -2.503,0.834 -3.756,1.249c-0.975,-1.217 -2.081,-2.323 -3.298,-3.298c0.415,-1.253 0.831,-2.505 1.249,-3.756c-1.314,-0.94 -2.717,-1.749 -4.188,-2.418c-0.874,0.988 -1.75,1.974 -2.628,2.96c-1.453,-0.567 -2.963,-0.972 -4.505,-1.207c-0.267,-1.293 -0.533,-2.585 -0.796,-3.878Zm-2.418,12.418c6.88,0 12.465,5.585 12.465,12.465c-0,6.88 -5.585,12.465 -12.465,12.465c-6.88,-0 -12.465,-5.585 -12.465,-12.465c0,-6.88 5.585,-12.465 12.465,-12.465Z" style="fill:rgb(126,126,126);"/>
                <path d="M314.418,197.117c-1.608,-0.156 -3.228,-0.156 -4.836,0c-0.263,1.293 -0.529,2.585 -0.796,3.878c-1.542,0.235 -3.052,0.64 -4.505,1.207c-0.878,-0.986 -1.754,-1.972 -2.628,-2.96c-1.471,0.669 -2.874,1.478 -4.188,2.418c0.418,1.251 0.834,2.503 1.249,3.756c-1.217,0.975 -2.323,2.081 -3.298,3.298c-1.253,-0.415 -2.505,-0.831 -3.756,-1.249c-0.94,1.314 -1.749,2.717 -2.418,4.188c0.988,0.874 1.974,1.75 2.96,2.628c-0.567,1.453 -0.972,2.963 -1.207,4.505c-1.293,0.267 -2.585,0.533 -3.878,0.796c-0.156,1.608 -0.156,3.228 0,4.836c1.293,0.263 2.585,0.529 3.878,0.796c0.235,1.542 0.64,3.052 1.207,4.505c-0.986,0.878 -1.972,1.754 -2.96,2.628c0.669,1.471 1.478,2.874 2.418,4.188c1.251,-0.418 2.503,-0.834 3.756,-1.249c0.975,1.217 2.081,2.323 3.298,3.298c-0.415,1.253 -0.831,2.505 -1.249,3.756c1.314,0.94 2.717,1.749 4.188,2.418c0.874,-0.988 1.75,-1.974 2.628,-2.96c1.453,0.567 2.963,0.972 4.505,1.207c0.267,1.293 0.533,2.585 0.796,3.878c1.608,0.156 3.228,0.156 4.836,-0c0.263,-1.293 0.529,-2.585 0.796,-3.878c1.542,-0.235 3.052,-0.64 4.505,-1.207c0.878,0.986 1.754,1.972 2.628,2.96c1.471,-0.669 2.874,-1.478 4.188,-2.418c-0.418,-1.251 -0.834,-2.503 -1.249,-3.756c1.217,-0.975 2.323,-2.081 3.298,-3.298c1.253,0.415 2.505,0.831 3.756,1.249c0.94,-1.314 1.749,-2.717 2.418,-4.188c-0.988,-0.874 -1.974,-1.75 -2.96,-2.628c0.567,-1.453 0.972,-2.963 1.207,-4.505c1.293,-0.267 2.585,-0.533 3.878,-0.796c0.156,-1.608 0.156,-3.228 -0,-4.836c-1.293,-0.263 -2.585,-0.529 -3.878,-0.796c-0.235,-1.542 -0.64,-3.052 -1.207,-4.505c0.986,-0.878 1.972,-1.754 2.96,-2.628c-0.669,-1.471 -1.478,-2.874 -2.418,-4.188c-1.251,0.418 -2.503,0.834 -3.756,1.249c-0.975,-1.217 -2.081,-2.323 -3.298,-3.298c0.415,-1.253 0.831,-2.505 1.249,-3.756c-1.314,-0.94 -2.717,-1.749 -4.188,-2.418c-0.874,0.988 -1.75,1.974 -2.628,2.96c-1.453,-0.567 -2.963,-0.972 -4.505,-1.207c-0.267,-1.293 -0.533,-2.585 -0.796,-3.878Zm-2.418,12.418c6.88,0 12.465,5.585 12.465,12.465c-0,6.88 -5.585,12.465 -12.465,12.465c-6.88,-0 -12.465,-5.585 -12.465,-12.465c0,-6.88 5.585,-12.465 12.465,-12.465Z" style="fill:rgb(126,126,126);"/>
            </g>
        </g>
        <g id="block">
            <path d="M122,8.634c0,-4.765 -3.869,-8.634 -8.634,-8.634l-72.732,0c-4.765,0 -8.634,3.869 -8.634,8.634l0,72.732c0,4.765 3.869,8.634 8.634,8.634l72.732,-0c4.765,-0 8.634,-3.869 8.634,-8.634l0,-72.732Z" style="fill:rgb(241,241,241);"/>
            <path d="M122,8.634l0,72.732c0,4.765 -3.869,8.634 -8.634,8.634l-72.732,-0c-4.765,-0 -8.634,-3.869 -8.634,-8.634l0,-72.732c0,-4.765 3.869,-8.634 8.634,-8.634l72.732,0c4.765,0 8.634,3.869 8.634,8.634Zm-5,0c0,-2.006 -1.628,-3.634 -3.634,-3.634l-72.732,0c-2.006,0 -3.634,1.628 -3.634,3.634l0,72.732c0,2.006 1.628,3.634 3.634,3.634l72.732,-0c2.006,-0 3.634,-1.628 3.634,-3.634l0,-72.732Z" style="fill:rgb(152,152,152);"/>
        </g>
    </g>
</svg>
