<?xml version="1.0" encoding="UTF-8" standalone="no"?>
<!DOCTYPE svg PUBLIC "-//W3C//DTD SVG 1.1//EN" "http://www.w3.org/Graphics/SVG/1.1/DTD/svg11.dtd">
<svg width="765" viewBox="0 0 765 305" version="1.1" xmlns="http://www.w3.org/2000/svg"
    xmlns:xlink="http://www.w3.org/1999/xlink" xml:space="preserve"
    xmlns:serif="http://www.serif.com/"
    style="fill-rule:evenodd;clip-rule:evenodd;stroke-linecap:round;stroke-linejoin:round;stroke-miterlimit:1.5;"
    aria-labelledby="g2-title">
    <title id="g2-title" lang="en">The front panel is added</title>
    <g id="group-2">
        <rect x="232.176" y="2.5" width="300" height="300" style="fill:rgb(89,89,89);stroke:rgb(38,38,38);stroke-width:5px;"/>
        <g id="conveyor-belt">
            <path d="M30.353,241.5C13.601,241.5 0,227.161 0,209.5C0,191.839 13.601,177.5 30.353,177.5L734,177.5C750.752,177.5 764.353,191.839 764.353,209.5C764.353,227.161 750.752,241.5 734,241.5L30.353,241.5Z" style="fill:rgb(229,229,229);"/>
            <path d="M30.353,241.5C13.601,241.5 0,227.161 0,209.5C0,191.839 13.601,177.5 30.353,177.5L734,177.5C750.752,177.5 764.353,191.839 764.353,209.5C764.353,227.161 750.752,241.5 734,241.5L30.353,241.5ZM30.353,236.5L734,236.5C748.068,236.5 759.353,224.331 759.353,209.5C759.353,194.669 748.068,182.5 734,182.5L30.353,182.5C16.285,182.5 5,194.669 5,209.5C5,224.331 16.285,236.5 30.353,236.5Z" style="fill:rgb(128,128,128);"/>
            <g id="cogs">
                <path d="M34.418,184.617C32.81,184.461 31.19,184.461 29.582,184.617C29.319,185.91 29.053,187.202 28.786,188.495C27.244,188.73 25.734,189.135 24.281,189.702C23.403,188.716 22.527,187.73 21.653,186.742C20.182,187.411 18.779,188.22 17.465,189.16C17.883,190.411 18.299,191.663 18.714,192.916C17.497,193.891 16.391,194.997 15.416,196.214C14.163,195.799 12.911,195.383 11.66,194.965C10.72,196.279 9.911,197.682 9.242,199.153C10.23,200.027 11.216,200.903 12.202,201.781C11.635,203.234 11.23,204.744 10.995,206.286C9.702,206.553 8.41,206.819 7.117,207.082C6.961,208.69 6.961,210.31 7.117,211.918C8.41,212.181 9.702,212.447 10.995,212.714C11.23,214.256 11.635,215.766 12.202,217.219C11.216,218.097 10.23,218.973 9.242,219.847C9.911,221.318 10.72,222.721 11.66,224.035C12.911,223.617 14.163,223.201 15.416,222.786C16.391,224.003 17.497,225.109 18.714,226.084C18.299,227.337 17.883,228.589 17.465,229.84C18.779,230.78 20.182,231.589 21.653,232.258C22.527,231.27 23.403,230.284 24.281,229.298C25.734,229.865 27.244,230.27 28.786,230.505C29.053,231.798 29.319,233.09 29.582,234.383C31.19,234.539 32.81,234.539 34.418,234.383C34.681,233.09 34.947,231.798 35.214,230.505C36.756,230.27 38.266,229.865 39.719,229.298C40.597,230.284 41.473,231.27 42.347,232.258C43.818,231.589 45.221,230.78 46.535,229.84C46.117,228.589 45.701,227.337 45.286,226.084C46.503,225.109 47.609,224.003 48.584,222.786C49.837,223.201 51.089,223.617 52.34,224.035C53.28,222.721 54.089,221.318 54.758,219.847C53.77,218.973 52.784,218.097 51.798,217.219C52.365,215.766 52.77,214.256 53.005,212.714C54.298,212.447 55.59,212.181 56.883,211.918C57.039,210.31 57.039,208.69 56.883,207.082C55.59,206.819 54.298,206.553 53.005,206.286C52.77,204.744 52.365,203.234 51.798,201.781C52.784,200.903 53.77,200.027 54.758,199.153C54.089,197.682 53.28,196.279 52.34,194.965C51.089,195.383 49.837,195.799 48.584,196.214C47.609,194.997 46.503,193.891 45.286,192.916C45.701,191.663 46.117,190.411 46.535,189.16C45.221,188.22 43.818,187.411 42.347,186.742C41.473,187.73 40.597,188.716 39.719,189.702C38.266,189.135 36.756,188.73 35.214,188.495C34.947,187.202 34.681,185.91 34.418,184.617ZM32,197.035C38.88,197.035 44.465,202.62 44.465,209.5C44.465,216.38 38.88,221.965 32,221.965C25.12,221.965 19.535,216.38 19.535,209.5C19.535,202.62 25.12,197.035 32,197.035Z" style="fill:rgb(126,126,126);"/>
                <path d="M104.418,184.617C102.81,184.461 101.19,184.461 99.582,184.617C99.319,185.91 99.053,187.202 98.786,188.495C97.244,188.73 95.734,189.135 94.281,189.702C93.403,188.716 92.527,187.73 91.653,186.742C90.182,187.411 88.779,188.22 87.465,189.16C87.883,190.411 88.299,191.663 88.714,192.916C87.497,193.891 86.391,194.997 85.416,196.214C84.163,195.799 82.911,195.383 81.66,194.965C80.72,196.279 79.911,197.682 79.242,199.153C80.23,200.027 81.216,200.903 82.202,201.781C81.635,203.234 81.23,204.744 80.995,206.286C79.702,206.553 78.41,206.819 77.117,207.082C76.961,208.69 76.961,210.31 77.117,211.918C78.41,212.181 79.702,212.447 80.995,212.714C81.23,214.256 81.635,215.766 82.202,217.219C81.216,218.097 80.23,218.973 79.242,219.847C79.911,221.318 80.72,222.721 81.66,224.035C82.911,223.617 84.163,223.201 85.416,222.786C86.391,224.003 87.497,225.109 88.714,226.084C88.299,227.337 87.883,228.589 87.465,229.84C88.779,230.78 90.182,231.589 91.653,232.258C92.527,231.27 93.403,230.284 94.281,229.298C95.734,229.865 97.244,230.27 98.786,230.505C99.053,231.798 99.319,233.09 99.582,234.383C101.19,234.539 102.81,234.539 104.418,234.383C104.681,233.09 104.947,231.798 105.214,230.505C106.756,230.27 108.266,229.865 109.719,229.298C110.597,230.284 111.473,231.27 112.347,232.258C113.818,231.589 115.221,230.78 116.535,229.84C116.117,228.589 115.701,227.337 115.286,226.084C116.503,225.109 117.609,224.003 118.584,222.786C119.837,223.201 121.089,223.617 122.34,224.035C123.28,222.721 124.089,221.318 124.758,219.847C123.77,218.973 122.784,218.097 121.798,217.219C122.365,215.766 122.77,214.256 123.005,212.714C124.298,212.447 125.59,212.181 126.883,211.918C127.039,210.31 127.039,208.69 126.883,207.082C125.59,206.819 124.298,206.553 123.005,206.286C122.77,204.744 122.365,203.234 121.798,201.781C122.784,200.903 123.77,200.027 124.758,199.153C124.089,197.682 123.28,196.279 122.34,194.965C121.089,195.383 119.837,195.799 118.584,196.214C117.609,194.997 116.503,193.891 115.286,192.916C115.701,191.663 116.117,190.411 116.535,189.16C115.221,188.22 113.818,187.411 112.347,186.742C111.473,187.73 110.597,188.716 109.719,189.702C108.266,189.135 106.756,188.73 105.214,188.495C104.947,187.202 104.681,185.91 104.418,184.617ZM102,197.035C108.88,197.035 114.465,202.62 114.465,209.5C114.465,216.38 108.88,221.965 102,221.965C95.12,221.965 89.535,216.38 89.535,209.5C89.535,202.62 95.12,197.035 102,197.035Z" style="fill:rgb(126,126,126);"/>
                <path d="M174.418,184.617C172.81,184.461 171.19,184.461 169.582,184.617C169.319,185.91 169.053,187.202 168.786,188.495C167.244,188.73 165.734,189.135 164.281,189.702C163.403,188.716 162.527,187.73 161.653,186.742C160.182,187.411 158.779,188.22 157.465,189.16C157.883,190.411 158.299,191.663 158.714,192.916C157.497,193.891 156.391,194.997 155.416,196.214C154.163,195.799 152.911,195.383 151.66,194.965C150.72,196.279 149.911,197.682 149.242,199.153C150.23,200.027 151.216,200.903 152.202,201.781C151.635,203.234 151.23,204.744 150.995,206.286C149.702,206.553 148.41,206.819 147.117,207.082C146.961,208.69 146.961,210.31 147.117,211.918C148.41,212.181 149.702,212.447 150.995,212.714C151.23,214.256 151.635,215.766 152.202,217.219C151.216,218.097 150.23,218.973 149.242,219.847C149.911,221.318 150.72,222.721 151.66,224.035C152.911,223.617 154.163,223.201 155.416,222.786C156.391,224.003 157.497,225.109 158.714,226.084C158.299,227.337 157.883,228.589 157.465,229.84C158.779,230.78 160.182,231.589 161.653,232.258C162.527,231.27 163.403,230.284 164.281,229.298C165.734,229.865 167.244,230.27 168.786,230.505C169.053,231.798 169.319,233.09 169.582,234.383C171.19,234.539 172.81,234.539 174.418,234.383C174.681,233.09 174.947,231.798 175.214,230.505C176.756,230.27 178.266,229.865 179.719,229.298C180.597,230.284 181.473,231.27 182.347,232.258C183.818,231.589 185.221,230.78 186.535,229.84C186.117,228.589 185.701,227.337 185.286,226.084C186.503,225.109 187.609,224.003 188.584,222.786C189.837,223.201 191.089,223.617 192.34,224.035C193.28,222.721 194.089,221.318 194.758,219.847C193.77,218.973 192.784,218.097 191.798,217.219C192.365,215.766 192.77,214.256 193.005,212.714C194.298,212.447 195.59,212.181 196.883,211.918C197.039,210.31 197.039,208.69 196.883,207.082C195.59,206.819 194.298,206.553 193.005,206.286C192.77,204.744 192.365,203.234 191.798,201.781C192.784,200.903 193.77,200.027 194.758,199.153C194.089,197.682 193.28,196.279 192.34,194.965C191.089,195.383 189.837,195.799 188.584,196.214C187.609,194.997 186.503,193.891 185.286,192.916C185.701,191.663 186.117,190.411 186.535,189.16C185.221,188.22 183.818,187.411 182.347,186.742C181.473,187.73 180.597,188.716 179.719,189.702C178.266,189.135 176.756,188.73 175.214,188.495C174.947,187.202 174.681,185.91 174.418,184.617ZM172,197.035C178.88,197.035 184.465,202.62 184.465,209.5C184.465,216.38 178.88,221.965 172,221.965C165.12,221.965 159.535,216.38 159.535,209.5C159.535,202.62 165.12,197.035 172,197.035Z" style="fill:rgb(126,126,126);"/>
                <path d="M244.418,184.617C242.81,184.461 241.19,184.461 239.582,184.617C239.319,185.91 239.053,187.202 238.786,188.495C237.244,188.73 235.734,189.135 234.281,189.702C233.403,188.716 232.527,187.73 231.653,186.742C230.182,187.411 228.779,188.22 227.465,189.16C227.883,190.411 228.299,191.663 228.714,192.916C227.497,193.891 226.391,194.997 225.416,196.214C224.163,195.799 222.911,195.383 221.66,194.965C220.72,196.279 219.911,197.682 219.242,199.153C220.23,200.027 221.216,200.903 222.202,201.781C221.635,203.234 221.23,204.744 220.995,206.286C219.702,206.553 218.41,206.819 217.117,207.082C216.961,208.69 216.961,210.31 217.117,211.918C218.41,212.181 219.702,212.447 220.995,212.714C221.23,214.256 221.635,215.766 222.202,217.219C221.216,218.097 220.23,218.973 219.242,219.847C219.911,221.318 220.72,222.721 221.66,224.035C222.911,223.617 224.163,223.201 225.416,222.786C226.391,224.003 227.497,225.109 228.714,226.084C228.299,227.337 227.883,228.589 227.465,229.84C228.779,230.78 230.182,231.589 231.653,232.258C232.527,231.27 233.403,230.284 234.281,229.298C235.734,229.865 237.244,230.27 238.786,230.505C239.053,231.798 239.319,233.09 239.582,234.383C241.19,234.539 242.81,234.539 244.418,234.383C244.681,233.09 244.947,231.798 245.214,230.505C246.756,230.27 248.266,229.865 249.719,229.298C250.597,230.284 251.473,231.27 252.347,232.258C253.818,231.589 255.221,230.78 256.535,229.84C256.117,228.589 255.701,227.337 255.286,226.084C256.503,225.109 257.609,224.003 258.584,222.786C259.837,223.201 261.089,223.617 262.34,224.035C263.28,222.721 264.089,221.318 264.758,219.847C263.77,218.973 262.784,218.097 261.798,217.219C262.365,215.766 262.77,214.256 263.005,212.714C264.298,212.447 265.59,212.181 266.883,211.918C267.039,210.31 267.039,208.69 266.883,207.082C265.59,206.819 264.298,206.553 263.005,206.286C262.77,204.744 262.365,203.234 261.798,201.781C262.784,200.903 263.77,200.027 264.758,199.153C264.089,197.682 263.28,196.279 262.34,194.965C261.089,195.383 259.837,195.799 258.584,196.214C257.609,194.997 256.503,193.891 255.286,192.916C255.701,191.663 256.117,190.411 256.535,189.16C255.221,188.22 253.818,187.411 252.347,186.742C251.473,187.73 250.597,188.716 249.719,189.702C248.266,189.135 246.756,188.73 245.214,188.495C244.947,187.202 244.681,185.91 244.418,184.617ZM242,197.035C248.88,197.035 254.465,202.62 254.465,209.5C254.465,216.38 248.88,221.965 242,221.965C235.12,221.965 229.535,216.38 229.535,209.5C229.535,202.62 235.12,197.035 242,197.035Z" style="fill:rgb(126,126,126);"/>
                <path d="M314.418,184.617C312.81,184.461 311.19,184.461 309.582,184.617C309.319,185.91 309.053,187.202 308.786,188.495C307.244,188.73 305.734,189.135 304.281,189.702C303.403,188.716 302.527,187.73 301.653,186.742C300.182,187.411 298.779,188.22 297.465,189.16C297.883,190.411 298.299,191.663 298.714,192.916C297.497,193.891 296.391,194.997 295.416,196.214C294.163,195.799 292.911,195.383 291.66,194.965C290.72,196.279 289.911,197.682 289.242,199.153C290.23,200.027 291.216,200.903 292.202,201.781C291.635,203.234 291.23,204.744 290.995,206.286C289.702,206.553 288.41,206.819 287.117,207.082C286.961,208.69 286.961,210.31 287.117,211.918C288.41,212.181 289.702,212.447 290.995,212.714C291.23,214.256 291.635,215.766 292.202,217.219C291.216,218.097 290.23,218.973 289.242,219.847C289.911,221.318 290.72,222.721 291.66,224.035C292.911,223.617 294.163,223.201 295.416,222.786C296.391,224.003 297.497,225.109 298.714,226.084C298.299,227.337 297.883,228.589 297.465,229.84C298.779,230.78 300.182,231.589 301.653,232.258C302.527,231.27 303.403,230.284 304.281,229.298C305.734,229.865 307.244,230.27 308.786,230.505C309.053,231.798 309.319,233.09 309.582,234.383C311.19,234.539 312.81,234.539 314.418,234.383C314.681,233.09 314.947,231.798 315.214,230.505C316.756,230.27 318.266,229.865 319.719,229.298C320.597,230.284 321.473,231.27 322.347,232.258C323.818,231.589 325.221,230.78 326.535,229.84C326.117,228.589 325.701,227.337 325.286,226.084C326.503,225.109 327.609,224.003 328.584,222.786C329.837,223.201 331.089,223.617 332.34,224.035C333.28,222.721 334.089,221.318 334.758,219.847C333.77,218.973 332.784,218.097 331.798,217.219C332.365,215.766 332.77,214.256 333.005,212.714C334.298,212.447 335.59,212.181 336.883,211.918C337.039,210.31 337.039,208.69 336.883,207.082C335.59,206.819 334.298,206.553 333.005,206.286C332.77,204.744 332.365,203.234 331.798,201.781C332.784,200.903 333.77,200.027 334.758,199.153C334.089,197.682 333.28,196.279 332.34,194.965C331.089,195.383 329.837,195.799 328.584,196.214C327.609,194.997 326.503,193.891 325.286,192.916C325.701,191.663 326.117,190.411 326.535,189.16C325.221,188.22 323.818,187.411 322.347,186.742C321.473,187.73 320.597,188.716 319.719,189.702C318.266,189.135 316.756,188.73 315.214,188.495C314.947,187.202 314.681,185.91 314.418,184.617ZM312,197.035C318.88,197.035 324.465,202.62 324.465,209.5C324.465,216.38 318.88,221.965 312,221.965C305.12,221.965 299.535,216.38 299.535,209.5C299.535,202.62 305.12,197.035 312,197.035Z" style="fill:rgb(126,126,126);"/>
                <path d="M384.418,184.617C382.81,184.461 381.19,184.461 379.582,184.617C379.319,185.91 379.053,187.202 378.786,188.495C377.244,188.73 375.734,189.135 374.281,189.702C373.403,188.716 372.527,187.73 371.653,186.742C370.182,187.411 368.779,188.22 367.465,189.16C367.883,190.411 368.299,191.663 368.714,192.916C367.497,193.891 366.391,194.997 365.416,196.214C364.163,195.799 362.911,195.383 361.66,194.965C360.72,196.279 359.911,197.682 359.242,199.153C360.23,200.027 361.216,200.903 362.202,201.781C361.635,203.234 361.23,204.744 360.995,206.286C359.702,206.553 358.41,206.819 357.117,207.082C356.961,208.69 356.961,210.31 357.117,211.918C358.41,212.181 359.702,212.447 360.995,212.714C361.23,214.256 361.635,215.766 362.202,217.219C361.216,218.097 360.23,218.973 359.242,219.847C359.911,221.318 360.72,222.721 361.66,224.035C362.911,223.617 364.163,223.201 365.416,222.786C366.391,224.003 367.497,225.109 368.714,226.084C368.299,227.337 367.883,228.589 367.465,229.84C368.779,230.78 370.182,231.589 371.653,232.258C372.527,231.27 373.403,230.284 374.281,229.298C375.734,229.865 377.244,230.27 378.786,230.505C379.053,231.798 379.319,233.09 379.582,234.383C381.19,234.539 382.81,234.539 384.418,234.383C384.681,233.09 384.947,231.798 385.214,230.505C386.756,230.27 388.266,229.865 389.719,229.298C390.597,230.284 391.473,231.27 392.347,232.258C393.818,231.589 395.221,230.78 396.535,229.84C396.117,228.589 395.701,227.337 395.286,226.084C396.503,225.109 397.609,224.003 398.584,222.786C399.837,223.201 401.089,223.617 402.34,224.035C403.28,222.721 404.089,221.318 404.758,219.847C403.77,218.973 402.784,218.097 401.798,217.219C402.365,215.766 402.77,214.256 403.005,212.714C404.298,212.447 405.59,212.181 406.883,211.918C407.039,210.31 407.039,208.69 406.883,207.082C405.59,206.819 404.298,206.553 403.005,206.286C402.77,204.744 402.365,203.234 401.798,201.781C402.784,200.903 403.77,200.027 404.758,199.153C404.089,197.682 403.28,196.279 402.34,194.965C401.089,195.383 399.837,195.799 398.584,196.214C397.609,194.997 396.503,193.891 395.286,192.916C395.701,191.663 396.117,190.411 396.535,189.16C395.221,188.22 393.818,187.411 392.347,186.742C391.473,187.73 390.597,188.716 389.719,189.702C388.266,189.135 386.756,188.73 385.214,188.495C384.947,187.202 384.681,185.91 384.418,184.617ZM382,197.035C388.88,197.035 394.465,202.62 394.465,209.5C394.465,216.38 388.88,221.965 382,221.965C375.12,221.965 369.535,216.38 369.535,209.5C369.535,202.62 375.12,197.035 382,197.035Z" style="fill:rgb(126,126,126);"/>
                <path d="M454.418,184.617C452.81,184.461 451.19,184.461 449.582,184.617C449.319,185.91 449.053,187.202 448.786,188.495C447.244,188.73 445.734,189.135 444.281,189.702C443.403,188.716 442.527,187.73 441.653,186.742C440.182,187.411 438.779,188.22 437.465,189.16C437.883,190.411 438.299,191.663 438.714,192.916C437.497,193.891 436.391,194.997 435.416,196.214C434.163,195.799 432.911,195.383 431.66,194.965C430.72,196.279 429.911,197.682 429.242,199.153C430.23,200.027 431.216,200.903 432.202,201.781C431.635,203.234 431.23,204.744 430.995,206.286C429.702,206.553 428.41,206.819 427.117,207.082C426.961,208.69 426.961,210.31 427.117,211.918C428.41,212.181 429.702,212.447 430.995,212.714C431.23,214.256 431.635,215.766 432.202,217.219C431.216,218.097 430.23,218.973 429.242,219.847C429.911,221.318 430.72,222.721 431.66,224.035C432.911,223.617 434.163,223.201 435.416,222.786C436.391,224.003 437.497,225.109 438.714,226.084C438.299,227.337 437.883,228.589 437.465,229.84C438.779,230.78 440.182,231.589 441.653,232.258C442.527,231.27 443.403,230.284 444.281,229.298C445.734,229.865 447.244,230.27 448.786,230.505C449.053,231.798 449.319,233.09 449.582,234.383C451.19,234.539 452.81,234.539 454.418,234.383C454.681,233.09 454.947,231.798 455.214,230.505C456.756,230.27 458.266,229.865 459.719,229.298C460.597,230.284 461.473,231.27 462.347,232.258C463.818,231.589 465.221,230.78 466.535,229.84C466.117,228.589 465.701,227.337 465.286,226.084C466.503,225.109 467.609,224.003 468.584,222.786C469.837,223.201 471.089,223.617 472.34,224.035C473.28,222.721 474.089,221.318 474.758,219.847C473.77,218.973 472.784,218.097 471.798,217.219C472.365,215.766 472.77,214.256 473.005,212.714C474.298,212.447 475.59,212.181 476.883,211.918C477.039,210.31 477.039,208.69 476.883,207.082C475.59,206.819 474.298,206.553 473.005,206.286C472.77,204.744 472.365,203.234 471.798,201.781C472.784,200.903 473.77,200.027 474.758,199.153C474.089,197.682 473.28,196.279 472.34,194.965C471.089,195.383 469.837,195.799 468.584,196.214C467.609,194.997 466.503,193.891 465.286,192.916C465.701,191.663 466.117,190.411 466.535,189.16C465.221,188.22 463.818,187.411 462.347,186.742C461.473,187.73 460.597,188.716 459.719,189.702C458.266,189.135 456.756,188.73 455.214,188.495C454.947,187.202 454.681,185.91 454.418,184.617ZM452,197.035C458.88,197.035 464.465,202.62 464.465,209.5C464.465,216.38 458.88,221.965 452,221.965C445.12,221.965 439.535,216.38 439.535,209.5C439.535,202.62 445.12,197.035 452,197.035Z" style="fill:rgb(126,126,126);"/>
                <path d="M524.418,184.617C522.81,184.461 521.19,184.461 519.582,184.617C519.319,185.91 519.053,187.202 518.786,188.495C517.244,188.73 515.734,189.135 514.281,189.702C513.403,188.716 512.527,187.73 511.653,186.742C510.182,187.411 508.779,188.22 507.465,189.16C507.883,190.411 508.299,191.663 508.714,192.916C507.497,193.891 506.391,194.997 505.416,196.214C504.163,195.799 502.911,195.383 501.66,194.965C500.72,196.279 499.911,197.682 499.242,199.153C500.23,200.027 501.216,200.903 502.202,201.781C501.635,203.234 501.23,204.744 500.995,206.286C499.702,206.553 498.41,206.819 497.117,207.082C496.961,208.69 496.961,210.31 497.117,211.918C498.41,212.181 499.702,212.447 500.995,212.714C501.23,214.256 501.635,215.766 502.202,217.219C501.216,218.097 500.23,218.973 499.242,219.847C499.911,221.318 500.72,222.721 501.66,224.035C502.911,223.617 504.163,223.201 505.416,222.786C506.391,224.003 507.497,225.109 508.714,226.084C508.299,227.337 507.883,228.589 507.465,229.84C508.779,230.78 510.182,231.589 511.653,232.258C512.527,231.27 513.403,230.284 514.281,229.298C515.734,229.865 517.244,230.27 518.786,230.505C519.053,231.798 519.319,233.09 519.582,234.383C521.19,234.539 522.81,234.539 524.418,234.383C524.681,233.09 524.947,231.798 525.214,230.505C526.756,230.27 528.266,229.865 529.719,229.298C530.597,230.284 531.473,231.27 532.347,232.258C533.818,231.589 535.221,230.78 536.535,229.84C536.117,228.589 535.701,227.337 535.286,226.084C536.503,225.109 537.609,224.003 538.584,222.786C539.837,223.201 541.089,223.617 542.34,224.035C543.28,222.721 544.089,221.318 544.758,219.847C543.77,218.973 542.784,218.097 541.798,217.219C542.365,215.766 542.77,214.256 543.005,212.714C544.298,212.447 545.59,212.181 546.883,211.918C547.039,210.31 547.039,208.69 546.883,207.082C545.59,206.819 544.298,206.553 543.005,206.286C542.77,204.744 542.365,203.234 541.798,201.781C542.784,200.903 543.77,200.027 544.758,199.153C544.089,197.682 543.28,196.279 542.34,194.965C541.089,195.383 539.837,195.799 538.584,196.214C537.609,194.997 536.503,193.891 535.286,192.916C535.701,191.663 536.117,190.411 536.535,189.16C535.221,188.22 533.818,187.411 532.347,186.742C531.473,187.73 530.597,188.716 529.719,189.702C528.266,189.135 526.756,188.73 525.214,188.495C524.947,187.202 524.681,185.91 524.418,184.617ZM522,197.035C528.88,197.035 534.465,202.62 534.465,209.5C534.465,216.38 528.88,221.965 522,221.965C515.12,221.965 509.535,216.38 509.535,209.5C509.535,202.62 515.12,197.035 522,197.035Z" style="fill:rgb(126,126,126);"/>
                <path d="M594.418,184.617C592.81,184.461 591.19,184.461 589.582,184.617C589.319,185.91 589.053,187.202 588.786,188.495C587.244,188.73 585.734,189.135 584.281,189.702C583.403,188.716 582.527,187.73 581.653,186.742C580.182,187.411 578.779,188.22 577.465,189.16C577.883,190.411 578.299,191.663 578.714,192.916C577.497,193.891 576.391,194.997 575.416,196.214C574.163,195.799 572.911,195.383 571.66,194.965C570.72,196.279 569.911,197.682 569.242,199.153C570.23,200.027 571.216,200.903 572.202,201.781C571.635,203.234 571.23,204.744 570.995,206.286C569.702,206.553 568.41,206.819 567.117,207.082C566.961,208.69 566.961,210.31 567.117,211.918C568.41,212.181 569.702,212.447 570.995,212.714C571.23,214.256 571.635,215.766 572.202,217.219C571.216,218.097 570.23,218.973 569.242,219.847C569.911,221.318 570.72,222.721 571.66,224.035C572.911,223.617 574.163,223.201 575.416,222.786C576.391,224.003 577.497,225.109 578.714,226.084C578.299,227.337 577.883,228.589 577.465,229.84C578.779,230.78 580.182,231.589 581.653,232.258C582.527,231.27 583.403,230.284 584.281,229.298C585.734,229.865 587.244,230.27 588.786,230.505C589.053,231.798 589.319,233.09 589.582,234.383C591.19,234.539 592.81,234.539 594.418,234.383C594.681,233.09 594.947,231.798 595.214,230.505C596.756,230.27 598.266,229.865 599.719,229.298C600.597,230.284 601.473,231.27 602.347,232.258C603.818,231.589 605.221,230.78 606.535,229.84C606.117,228.589 605.701,227.337 605.286,226.084C606.503,225.109 607.609,224.003 608.584,222.786C609.837,223.201 611.089,223.617 612.34,224.035C613.28,222.721 614.089,221.318 614.758,219.847C613.77,218.973 612.784,218.097 611.798,217.219C612.365,215.766 612.77,214.256 613.005,212.714C614.298,212.447 615.59,212.181 616.883,211.918C617.039,210.31 617.039,208.69 616.883,207.082C615.59,206.819 614.298,206.553 613.005,206.286C612.77,204.744 612.365,203.234 611.798,201.781C612.784,200.903 613.77,200.027 614.758,199.153C614.089,197.682 613.28,196.279 612.34,194.965C611.089,195.383 609.837,195.799 608.584,196.214C607.609,194.997 606.503,193.891 605.286,192.916C605.701,191.663 606.117,190.411 606.535,189.16C605.221,188.22 603.818,187.411 602.347,186.742C601.473,187.73 600.597,188.716 599.719,189.702C598.266,189.135 596.756,188.73 595.214,188.495C594.947,187.202 594.681,185.91 594.418,184.617ZM592,197.035C598.88,197.035 604.465,202.62 604.465,209.5C604.465,216.38 598.88,221.965 592,221.965C585.12,221.965 579.535,216.38 579.535,209.5C579.535,202.62 585.12,197.035 592,197.035Z" style="fill:rgb(126,126,126);"/>
                <path d="M664.418,184.617C662.81,184.461 661.19,184.461 659.582,184.617C659.319,185.91 659.053,187.202 658.786,188.495C657.244,188.73 655.734,189.135 654.281,189.702C653.403,188.716 652.527,187.73 651.653,186.742C650.182,187.411 648.779,188.22 647.465,189.16C647.883,190.411 648.299,191.663 648.714,192.916C647.497,193.891 646.391,194.997 645.416,196.214C644.163,195.799 642.911,195.383 641.66,194.965C640.72,196.279 639.911,197.682 639.242,199.153C640.23,200.027 641.216,200.903 642.202,201.781C641.635,203.234 641.23,204.744 640.995,206.286C639.702,206.553 638.41,206.819 637.117,207.082C636.961,208.69 636.961,210.31 637.117,211.918C638.41,212.181 639.702,212.447 640.995,212.714C641.23,214.256 641.635,215.766 642.202,217.219C641.216,218.097 640.23,218.973 639.242,219.847C639.911,221.318 640.72,222.721 641.66,224.035C642.911,223.617 644.163,223.201 645.416,222.786C646.391,224.003 647.497,225.109 648.714,226.084C648.299,227.337 647.883,228.589 647.465,229.84C648.779,230.78 650.182,231.589 651.653,232.258C652.527,231.27 653.403,230.284 654.281,229.298C655.734,229.865 657.244,230.27 658.786,230.505C659.053,231.798 659.319,233.09 659.582,234.383C661.19,234.539 662.81,234.539 664.418,234.383C664.681,233.09 664.947,231.798 665.214,230.505C666.756,230.27 668.266,229.865 669.719,229.298C670.597,230.284 671.473,231.27 672.347,232.258C673.818,231.589 675.221,230.78 676.535,229.84C676.117,228.589 675.701,227.337 675.286,226.084C676.503,225.109 677.609,224.003 678.584,222.786C679.837,223.201 681.089,223.617 682.34,224.035C683.28,222.721 684.089,221.318 684.758,219.847C683.77,218.973 682.784,218.097 681.798,217.219C682.365,215.766 682.77,214.256 683.005,212.714C684.298,212.447 685.59,212.181 686.883,211.918C687.039,210.31 687.039,208.69 686.883,207.082C685.59,206.819 684.298,206.553 683.005,206.286C682.77,204.744 682.365,203.234 681.798,201.781C682.784,200.903 683.77,200.027 684.758,199.153C684.089,197.682 683.28,196.279 682.34,194.965C681.089,195.383 679.837,195.799 678.584,196.214C677.609,194.997 676.503,193.891 675.286,192.916C675.701,191.663 676.117,190.411 676.535,189.16C675.221,188.22 673.818,187.411 672.347,186.742C671.473,187.73 670.597,188.716 669.719,189.702C668.266,189.135 666.756,188.73 665.214,188.495C664.947,187.202 664.681,185.91 664.418,184.617ZM662,197.035C668.88,197.035 674.465,202.62 674.465,209.5C674.465,216.38 668.88,221.965 662,221.965C655.12,221.965 649.535,216.38 649.535,209.5C649.535,202.62 655.12,197.035 662,197.035Z" style="fill:rgb(126,126,126);"/>
                <path d="M734.418,184.617C732.81,184.461 731.19,184.461 729.582,184.617C729.319,185.91 729.053,187.202 728.786,188.495C727.244,188.73 725.734,189.135 724.281,189.702C723.403,188.716 722.527,187.73 721.653,186.742C720.182,187.411 718.779,188.22 717.465,189.16C717.883,190.411 718.299,191.663 718.714,192.916C717.497,193.891 716.391,194.997 715.416,196.214C714.163,195.799 712.911,195.383 711.66,194.965C710.72,196.279 709.911,197.682 709.242,199.153C710.23,200.027 711.216,200.903 712.202,201.781C711.635,203.234 711.23,204.744 710.995,206.286C709.702,206.553 708.41,206.819 707.117,207.082C706.961,208.69 706.961,210.31 707.117,211.918C708.41,212.181 709.702,212.447 710.995,212.714C711.23,214.256 711.635,215.766 712.202,217.219C711.216,218.097 710.23,218.973 709.242,219.847C709.911,221.318 710.72,222.721 711.66,224.035C712.911,223.617 714.163,223.201 715.416,222.786C716.391,224.003 717.497,225.109 718.714,226.084C718.299,227.337 717.883,228.589 717.465,229.84C718.779,230.78 720.182,231.589 721.653,232.258C722.527,231.27 723.403,230.284 724.281,229.298C725.734,229.865 727.244,230.27 728.786,230.505C729.053,231.798 729.319,233.09 729.582,234.383C731.19,234.539 732.81,234.539 734.418,234.383C734.681,233.09 734.947,231.798 735.214,230.505C736.756,230.27 738.266,229.865 739.719,229.298C740.597,230.284 741.473,231.27 742.347,232.258C743.818,231.589 745.221,230.78 746.535,229.84C746.117,228.589 745.701,227.337 745.286,226.084C746.503,225.109 747.609,224.003 748.584,222.786C749.837,223.201 751.089,223.617 752.34,224.035C753.28,222.721 754.089,221.318 754.758,219.847C753.77,218.973 752.784,218.097 751.798,217.219C752.365,215.766 752.77,214.256 753.005,212.714C754.298,212.447 755.59,212.181 756.883,211.918C757.039,210.31 757.039,208.69 756.883,207.082C755.59,206.819 754.298,206.553 753.005,206.286C752.77,204.744 752.365,203.234 751.798,201.781C752.784,200.903 753.77,200.027 754.758,199.153C754.089,197.682 753.28,196.279 752.34,194.965C751.089,195.383 749.837,195.799 748.584,196.214C747.609,194.997 746.503,193.891 745.286,192.916C745.701,191.663 746.117,190.411 746.535,189.16C745.221,188.22 743.818,187.411 742.347,186.742C741.473,187.73 740.597,188.716 739.719,189.702C738.266,189.135 736.756,188.73 735.214,188.495C734.947,187.202 734.681,185.91 734.418,184.617ZM732,197.035C738.88,197.035 744.465,202.62 744.465,209.5C744.465,216.38 738.88,221.965 732,221.965C725.12,221.965 719.535,216.38 719.535,209.5C719.535,202.62 725.12,197.035 732,197.035Z" style="fill:rgb(126,126,126);"/>
            </g>
        </g>
        <g id="scarlett-body-painted">
            <path d="M461.08,137.355C461.08,131.916 456.664,127.5 451.225,127.5L313.128,127.5C307.689,127.5 303.273,131.916 303.273,137.355L303.273,167.645C303.273,173.084 307.689,177.5 313.128,177.5L451.225,177.5C456.664,177.5 461.08,173.084 461.08,167.645L461.08,137.355Z" style="fill:rgb(255,192,192);"/>
            <path d="M461.08,137.355L461.08,167.645C461.08,173.084 456.664,177.5 451.225,177.5L313.128,177.5C307.689,177.5 303.273,173.084 303.273,167.645L303.273,137.355C303.273,131.916 307.689,127.5 313.128,127.5L451.225,127.5C456.664,127.5 461.08,131.916 461.08,137.355ZM456.08,137.355C456.08,134.675 453.904,132.5 451.225,132.5L313.128,132.5C310.449,132.5 308.273,134.675 308.273,137.355L308.273,167.645C308.273,170.325 310.449,172.5 313.128,172.5L451.225,172.5C453.904,172.5 456.08,170.325 456.08,167.645L456.08,137.355Z" style="fill:rgb(242,0,57);"/>
        </g>
        <g id="scarlett-full">
            <path d="M461.08,137.355C461.08,131.916 456.664,127.5 451.225,127.5L313.128,127.5C307.689,127.5 303.273,131.916 303.273,137.355L303.273,167.645C303.273,173.084 307.689,177.5 313.128,177.5L451.225,177.5C456.664,177.5 461.08,173.084 461.08,167.645L461.08,137.355Z" style="fill:rgb(255,192,192);"/>
            <path d="M461.08,137.355L461.08,167.645C461.08,173.084 456.664,177.5 451.225,177.5L313.128,177.5C307.689,177.5 303.273,173.084 303.273,167.645L303.273,137.355C303.273,131.916 307.689,127.5 313.128,127.5L451.225,127.5C456.664,127.5 461.08,131.916 461.08,137.355ZM456.08,137.355C456.08,134.675 453.904,132.5 451.225,132.5L313.128,132.5C310.449,132.5 308.273,134.675 308.273,137.355L308.273,167.645C308.273,170.325 310.449,172.5 313.128,172.5L451.225,172.5C453.904,172.5 456.08,170.325 456.08,167.645L456.08,137.355Z" style="fill:rgb(242,0,57);"/>
            <g>
                <path d="M456.176,136.821C456.176,134.436 454.24,132.5 451.855,132.5L312.498,132.5C310.113,132.5 308.176,134.436 308.176,136.821L308.176,168.179C308.176,170.564 310.113,172.5 312.498,172.5L451.855,172.5C454.24,172.5 456.176,170.564 456.176,168.179L456.176,136.821Z" style="fill:rgb(46,46,56);"/>
                <circle cx="446.918" cy="141.128" r="4.531" style="fill:rgb(63,63,76);"/>
                <path d="M446.918,136.597L446.918,139.95" style="fill:none;stroke:white;stroke-width:0.48px;"/>
                <g>
                    <path d="M322.863,151.73C327.564,151.73 331.381,155.547 331.381,160.248C331.381,164.949 327.564,168.766 322.863,168.766C318.162,168.766 314.345,164.949 314.345,160.248C314.345,155.547 318.162,151.73 322.863,151.73ZM322.863,153.663C319.229,153.663 316.278,156.613 316.278,160.248C316.278,163.882 319.229,166.833 322.863,166.833C326.497,166.833 329.448,163.882 329.448,160.248C329.448,156.613 326.497,153.663 322.863,153.663Z"/>
                    <path d="M322.863,150.642C328.164,150.642 332.468,154.946 332.468,160.248C332.468,165.549 328.164,169.853 322.863,169.853C317.561,169.853 313.257,165.549 313.257,160.248C313.257,154.946 317.561,150.642 322.863,150.642ZM322.863,150.944C317.728,150.944 313.559,155.113 313.559,160.248C313.559,165.382 317.728,169.551 322.863,169.551C327.997,169.551 332.166,165.382 332.166,160.248C332.166,155.113 327.997,150.944 322.863,150.944Z"/>
                    <circle cx="322.863" cy="160.248" r="2.9"/>
                    <circle cx="322.863" cy="163.691" r="1.178"/>
                    <circle cx="326.306" cy="160.248" r="1.178"/>
                    <circle cx="319.419" cy="160.248" r="1.178"/>
                </g>
                <g>
                    <path d="M348.507,151.73C353.209,151.73 357.025,155.547 357.025,160.248C357.025,164.949 353.209,168.766 348.507,168.766C343.806,168.766 339.989,164.949 339.989,160.248C339.989,155.547 343.806,151.73 348.507,151.73ZM348.507,153.663C344.873,153.663 341.923,156.613 341.923,160.248C341.923,163.882 344.873,166.833 348.507,166.833C352.142,166.833 355.092,163.882 355.092,160.248C355.092,156.613 352.142,153.663 348.507,153.663Z"/>
                    <path d="M348.507,150.642C353.809,150.642 358.113,154.946 358.113,160.248C358.113,165.549 353.809,169.853 348.507,169.853C343.206,169.853 338.902,165.549 338.902,160.248C338.902,154.946 343.206,150.642 348.507,150.642ZM348.507,150.944C343.373,150.944 339.204,155.113 339.204,160.248C339.204,165.382 343.373,169.551 348.507,169.551C353.642,169.551 357.811,165.382 357.811,160.248C357.811,155.113 353.642,150.944 348.507,150.944Z"/>
                    <circle cx="348.507" cy="160.248" r="2.9"/>
                    <circle cx="348.507" cy="163.691" r="1.178"/>
                    <circle cx="351.951" cy="160.248" r="1.178"/>
                    <circle cx="345.064" cy="160.248" r="1.178"/>
                </g>
                <path d="M327.092,145.357C328.213,144.235 328.844,142.714 328.844,141.128C328.844,137.827 326.164,135.147 322.863,135.147C319.562,135.147 316.882,137.827 316.882,141.128C316.882,142.714 317.512,144.235 318.634,145.357" style="fill:none;stroke:rgb(0,255,157);stroke-width:0.72px;"/>
                <path d="M352.736,145.357C353.858,144.235 354.488,142.714 354.488,141.128C354.488,137.827 351.808,135.147 348.507,135.147C345.207,135.147 342.527,137.827 342.527,141.128C342.527,142.714 343.157,144.235 344.278,145.357" style="fill:none;stroke:rgb(0,255,157);stroke-width:0.72px;"/>
                <circle cx="368.806" cy="141.671" r="2.628" style="fill:rgb(109,109,123);stroke:black;stroke-width:0.48px;"/>
                <circle cx="383.939" cy="141.671" r="2.628" style="fill:rgb(109,109,123);stroke:black;stroke-width:0.48px;"/>
                <circle cx="368.806" cy="153.542" r="2.628" style="fill:rgb(109,109,123);stroke:black;stroke-width:0.48px;"/>
                <circle cx="383.939" cy="153.542" r="2.628" style="fill:rgb(109,109,123);stroke:black;stroke-width:0.48px;"/>
                <circle cx="368.806" cy="165.413" r="2.628" style="fill:rgb(109,109,123);stroke:black;stroke-width:0.48px;"/>
                <circle cx="383.939" cy="165.413" r="2.628" style="fill:rgb(109,109,123);stroke:black;stroke-width:0.48px;"/>
                <g>
                    <path d="M365.881,136.83L366.075,136.813C366.085,136.891 366.106,136.955 366.14,137.005C366.173,137.055 366.226,137.095 366.296,137.126C366.367,137.157 366.447,137.172 366.535,137.172C366.614,137.172 366.683,137.16 366.743,137.137C366.804,137.114 366.848,137.082 366.878,137.041C366.907,137 366.922,136.956 366.922,136.908C366.922,136.859 366.908,136.816 366.879,136.78C366.851,136.743 366.804,136.713 366.739,136.688C366.697,136.672 366.605,136.646 366.462,136.612C366.319,136.578 366.219,136.545 366.162,136.515C366.087,136.476 366.032,136.427 365.995,136.37C365.959,136.312 365.941,136.247 365.941,136.176C365.941,136.097 365.963,136.024 366.008,135.956C366.052,135.887 366.117,135.835 366.203,135.8C366.289,135.765 366.384,135.747 366.489,135.747C366.604,135.747 366.706,135.766 366.794,135.803C366.882,135.84 366.95,135.895 366.997,135.967C367.045,136.039 367.07,136.121 367.074,136.212L366.876,136.227C366.866,136.129 366.83,136.054 366.768,136.004C366.707,135.954 366.617,135.929 366.497,135.929C366.372,135.929 366.282,135.951 366.225,135.997C366.168,136.043 366.139,136.098 366.139,136.162C366.139,136.218 366.159,136.264 366.2,136.3C366.239,136.336 366.343,136.373 366.51,136.411C366.678,136.449 366.793,136.482 366.855,136.511C366.946,136.552 367.012,136.605 367.056,136.669C367.099,136.733 367.12,136.807 367.12,136.891C367.12,136.973 367.097,137.052 367.049,137.125C367.002,137.198 366.934,137.255 366.845,137.296C366.756,137.336 366.656,137.357 366.545,137.357C366.404,137.357 366.286,137.336 366.191,137.295C366.095,137.254 366.021,137.192 365.967,137.11C365.912,137.027 365.884,136.934 365.881,136.83Z" style="fill:white;fill-rule:nonzero;"/>
                    <path d="M368.149,136.967L368.347,136.992C368.316,137.107 368.258,137.197 368.174,137.26C368.09,137.324 367.982,137.356 367.851,137.356C367.686,137.356 367.555,137.305 367.459,137.203C367.362,137.102 367.314,136.959 367.314,136.776C367.314,136.586 367.363,136.439 367.46,136.334C367.558,136.229 367.685,136.177 367.84,136.177C367.991,136.177 368.114,136.228 368.21,136.331C368.306,136.434 368.353,136.578 368.353,136.764C368.353,136.776 368.353,136.793 368.352,136.815L367.511,136.815C367.518,136.939 367.553,137.034 367.616,137.1C367.679,137.166 367.758,137.199 367.852,137.199C367.922,137.199 367.982,137.18 368.032,137.143C368.081,137.107 368.12,137.048 368.149,136.967ZM367.522,136.658L368.152,136.658C368.143,136.563 368.119,136.492 368.079,136.445C368.018,136.371 367.94,136.334 367.843,136.334C367.755,136.334 367.681,136.364 367.621,136.422C367.561,136.481 367.528,136.56 367.522,136.658Z" style="fill:white;fill-rule:nonzero;"/>
                    <rect x="368.583" y="135.774" width="0.191" height="1.557" style="fill:white;fill-rule:nonzero;"/>
                    <path d="M369.842,136.967L370.04,136.992C370.008,137.107 369.951,137.197 369.867,137.26C369.782,137.324 369.675,137.356 369.544,137.356C369.379,137.356 369.248,137.305 369.151,137.203C369.055,137.102 369.006,136.959 369.006,136.776C369.006,136.586 369.055,136.439 369.153,136.334C369.251,136.229 369.377,136.177 369.533,136.177C369.684,136.177 369.807,136.228 369.903,136.331C369.998,136.434 370.046,136.578 370.046,136.764C370.046,136.776 370.046,136.793 370.045,136.815L369.204,136.815C369.211,136.939 369.246,137.034 369.309,137.1C369.372,137.166 369.451,137.199 369.545,137.199C369.615,137.199 369.675,137.18 369.724,137.143C369.774,137.107 369.813,137.048 369.842,136.967ZM369.215,136.658L369.844,136.658C369.836,136.563 369.812,136.492 369.772,136.445C369.711,136.371 369.632,136.334 369.535,136.334C369.447,136.334 369.374,136.364 369.314,136.422C369.254,136.481 369.221,136.56 369.215,136.658Z" style="fill:white;fill-rule:nonzero;"/>
                    <path d="M371.016,136.917L371.203,136.942C371.183,137.071 371.13,137.173 371.046,137.246C370.961,137.319 370.857,137.356 370.734,137.356C370.58,137.356 370.456,137.305 370.362,137.204C370.268,137.104 370.221,136.959 370.221,136.771C370.221,136.649 370.241,136.542 370.282,136.451C370.322,136.36 370.384,136.291 370.466,136.246C370.548,136.2 370.638,136.177 370.735,136.177C370.858,136.177 370.958,136.208 371.036,136.27C371.114,136.332 371.163,136.42 371.185,136.534L371,136.563C370.982,136.487 370.951,136.43 370.906,136.392C370.861,136.353 370.806,136.334 370.743,136.334C370.646,136.334 370.568,136.369 370.508,136.438C370.448,136.507 370.418,136.616 370.418,136.765C370.418,136.917 370.447,137.027 370.505,137.096C370.563,137.164 370.639,137.199 370.732,137.199C370.807,137.199 370.87,137.176 370.92,137.13C370.97,137.084 371.002,137.013 371.016,136.917Z" style="fill:white;fill-rule:nonzero;"/>
                    <path d="M371.784,137.159L371.812,137.328C371.758,137.34 371.71,137.345 371.668,137.345C371.598,137.345 371.544,137.334 371.506,137.312C371.468,137.29 371.441,137.261 371.425,137.226C371.41,137.19 371.402,137.115 371.402,137L371.402,136.351L371.262,136.351L371.262,136.203L371.402,136.203L371.402,135.923L371.592,135.809L371.592,136.203L371.784,136.203L371.784,136.351L371.592,136.351L371.592,137.011C371.592,137.065 371.596,137.1 371.602,137.116C371.609,137.131 371.62,137.144 371.635,137.153C371.65,137.162 371.672,137.167 371.7,137.167C371.722,137.167 371.75,137.164 371.784,137.159Z" style="fill:white;fill-rule:nonzero;"/>
                </g>
                <g>
                    <path d="M382.707,137.33L382.707,136.958L382.032,136.958L382.032,136.782L382.742,135.774L382.898,135.774L382.898,136.782L383.108,136.782L383.108,136.958L382.898,136.958L382.898,137.33L382.707,137.33ZM382.707,136.782L382.707,136.08L382.219,136.782L382.707,136.782Z" style="fill:white;fill-rule:nonzero;"/>
                    <path d="M383.598,136.486C383.519,136.457 383.46,136.416 383.422,136.362C383.383,136.308 383.364,136.244 383.364,136.169C383.364,136.055 383.405,135.96 383.486,135.883C383.568,135.806 383.676,135.767 383.811,135.767C383.947,135.767 384.057,135.807 384.139,135.886C384.222,135.964 384.264,136.061 384.264,136.174C384.264,136.246 384.245,136.309 384.207,136.362C384.169,136.416 384.111,136.457 384.034,136.486C384.13,136.517 384.203,136.567 384.253,136.637C384.302,136.706 384.327,136.789 384.327,136.885C384.327,137.018 384.28,137.13 384.186,137.221C384.092,137.312 383.968,137.357 383.814,137.357C383.661,137.357 383.537,137.311 383.443,137.22C383.349,137.129 383.302,137.016 383.302,136.88C383.302,136.779 383.327,136.694 383.379,136.626C383.43,136.557 383.503,136.511 383.598,136.486ZM383.56,136.162C383.56,136.236 383.583,136.296 383.631,136.343C383.678,136.389 383.74,136.413 383.816,136.413C383.889,136.413 383.95,136.39 383.997,136.343C384.044,136.297 384.067,136.24 384.067,136.173C384.067,136.103 384.043,136.044 383.994,135.996C383.946,135.948 383.886,135.924 383.813,135.924C383.741,135.924 383.68,135.948 383.632,135.994C383.584,136.041 383.56,136.097 383.56,136.162ZM383.498,136.881C383.498,136.936 383.511,136.988 383.537,137.039C383.563,137.09 383.601,137.13 383.652,137.158C383.703,137.186 383.758,137.2 383.817,137.2C383.908,137.2 383.983,137.17 384.043,137.112C384.102,137.053 384.132,136.978 384.132,136.887C384.132,136.795 384.101,136.719 384.04,136.659C383.979,136.599 383.902,136.569 383.81,136.569C383.72,136.569 383.646,136.599 383.587,136.658C383.528,136.718 383.498,136.792 383.498,136.881Z" style="fill:white;fill-rule:nonzero;"/>
                    <path d="M385.036,137.33L384.433,135.774L384.656,135.774L385.06,136.904C385.093,136.995 385.12,137.08 385.142,137.159C385.166,137.074 385.194,136.989 385.226,136.904L385.646,135.774L385.857,135.774L385.247,137.33L385.036,137.33Z" style="fill:white;fill-rule:nonzero;"/>
                </g>
                <g>
                    <rect x="367.256" y="147.644" width="0.206" height="1.557" style="fill:white;fill-rule:nonzero;"/>
                    <path d="M367.801,149.201L367.801,148.073L367.973,148.073L367.973,148.234C368.055,148.11 368.175,148.048 368.332,148.048C368.399,148.048 368.462,148.06 368.519,148.085C368.576,148.109 368.619,148.141 368.647,148.181C368.675,148.22 368.695,148.267 368.706,148.322C368.713,148.357 368.717,148.419 368.717,148.508L368.717,149.201L368.526,149.201L368.526,148.515C368.526,148.437 368.518,148.379 368.504,148.34C368.489,148.302 368.462,148.271 368.424,148.248C368.387,148.225 368.342,148.214 368.291,148.214C368.21,148.214 368.14,148.239 368.08,148.291C368.021,148.343 367.992,148.441 367.992,148.585L367.992,149.201L367.801,149.201Z" style="fill:white;fill-rule:nonzero;"/>
                    <path d="M368.934,148.865L369.123,148.835C369.133,148.911 369.163,148.969 369.211,149.009C369.26,149.049 369.328,149.069 369.415,149.069C369.502,149.069 369.568,149.052 369.61,149.016C369.653,148.98 369.674,148.938 369.674,148.89C369.674,148.847 369.655,148.813 369.618,148.788C369.591,148.771 369.526,148.749 369.422,148.723C369.282,148.688 369.185,148.657 369.131,148.631C369.076,148.606 369.035,148.57 369.007,148.524C368.979,148.479 368.965,148.428 368.965,148.373C368.965,148.323 368.977,148.276 369,148.233C369.023,148.19 369.054,148.155 369.094,148.126C369.124,148.105 369.164,148.086 369.216,148.071C369.267,148.056 369.322,148.048 369.381,148.048C369.469,148.048 369.547,148.061 369.614,148.086C369.681,148.112 369.73,148.146 369.762,148.19C369.794,148.233 369.816,148.291 369.828,148.364L369.641,148.39C369.632,148.332 369.608,148.286 369.567,148.254C369.526,148.221 369.469,148.205 369.395,148.205C369.307,148.205 369.244,148.22 369.207,148.249C369.169,148.278 369.15,148.312 369.15,148.351C369.15,148.375 369.158,148.398 369.174,148.417C369.189,148.438 369.214,148.455 369.247,148.468C369.266,148.476 369.322,148.492 369.416,148.517C369.551,148.553 369.645,148.583 369.699,148.606C369.752,148.629 369.794,148.662 369.825,148.706C369.855,148.75 369.87,148.805 369.87,148.87C369.87,148.934 369.852,148.994 369.815,149.05C369.777,149.106 369.724,149.15 369.654,149.18C369.584,149.211 369.504,149.227 369.416,149.227C369.269,149.227 369.158,149.196 369.081,149.135C369.004,149.074 368.955,148.984 368.934,148.865Z" style="fill:white;fill-rule:nonzero;"/>
                    <path d="M370.515,149.03L370.542,149.199C370.489,149.21 370.441,149.216 370.398,149.216C370.329,149.216 370.275,149.205 370.237,149.183C370.198,149.161 370.171,149.132 370.156,149.097C370.14,149.061 370.133,148.986 370.133,148.871L370.133,148.222L369.992,148.222L369.992,148.073L370.133,148.073L370.133,147.794L370.323,147.679L370.323,148.073L370.515,148.073L370.515,148.222L370.323,148.222L370.323,148.882C370.323,148.936 370.326,148.971 370.333,148.987C370.339,149.002 370.35,149.015 370.366,149.024C370.381,149.033 370.403,149.038 370.431,149.038C370.452,149.038 370.48,149.035 370.515,149.03Z" style="fill:white;fill-rule:nonzero;"/>
                </g>
                <g>
                    <path d="M382.607,149.201L383.204,147.644L383.426,147.644L384.064,149.201L383.829,149.201L383.647,148.73L382.996,148.73L382.825,149.201L382.607,149.201ZM383.056,148.562L383.584,148.562L383.421,148.131C383.371,148 383.335,147.892 383.311,147.808C383.291,147.908 383.263,148.007 383.227,148.105L383.056,148.562Z" style="fill:white;fill-rule:nonzero;"/>
                    <path d="M384.205,147.864L384.205,147.644L384.396,147.644L384.396,147.864L384.205,147.864ZM384.205,149.201L384.205,148.073L384.396,148.073L384.396,149.201L384.205,149.201Z" style="fill:white;fill-rule:nonzero;"/>
                    <path d="M384.685,149.201L384.685,148.073L384.857,148.073L384.857,148.244C384.901,148.164 384.941,148.112 384.978,148.086C385.016,148.061 385.056,148.048 385.101,148.048C385.165,148.048 385.231,148.068 385.297,148.109L385.232,148.287C385.185,148.259 385.138,148.245 385.091,148.245C385.05,148.245 385.012,148.258 384.979,148.283C384.946,148.308 384.922,148.343 384.908,148.388C384.887,148.456 384.876,148.53 384.876,148.611L384.876,149.201L384.685,149.201Z" style="fill:white;fill-rule:nonzero;"/>
                </g>
                <g>
                    <path d="M366.566,160.981L367.163,159.425L367.385,159.425L368.023,160.981L367.788,160.981L367.606,160.51L366.955,160.51L366.784,160.981L366.566,160.981ZM367.015,160.342L367.543,160.342L367.38,159.911C367.33,159.78 367.294,159.672 367.27,159.588C367.25,159.688 367.222,159.787 367.186,159.885L367.015,160.342Z" style="fill:white;fill-rule:nonzero;"/>
                    <path d="M368.902,160.981L368.902,160.816C368.814,160.943 368.695,161.007 368.544,161.007C368.477,161.007 368.415,160.994 368.358,160.969C368.3,160.943 368.257,160.911 368.229,160.873C368.201,160.834 368.181,160.787 368.17,160.731C368.162,160.693 368.158,160.634 368.158,160.552L368.158,159.854L368.35,159.854L368.35,160.479C368.35,160.579 368.353,160.646 368.361,160.681C368.373,160.731 368.399,160.771 368.438,160.799C368.477,160.828 368.525,160.842 368.582,160.842C368.639,160.842 368.693,160.828 368.744,160.798C368.794,160.769 368.829,160.729 368.85,160.678C368.871,160.628 368.882,160.554 368.882,160.458L368.882,159.854L369.073,159.854L369.073,160.981L368.902,160.981Z" style="fill:white;fill-rule:nonzero;"/>
                    <path d="M369.79,160.81L369.817,160.979C369.763,160.991 369.715,160.996 369.673,160.996C369.603,160.996 369.55,160.985 369.511,160.963C369.473,160.941 369.446,160.913 369.431,160.877C369.415,160.841 369.407,160.766 369.407,160.651L369.407,160.002L369.267,160.002L369.267,159.854L369.407,159.854L369.407,159.574L369.597,159.46L369.597,159.854L369.79,159.854L369.79,160.002L369.597,160.002L369.597,160.662C369.597,160.716 369.601,160.751 369.607,160.767C369.614,160.782 369.625,160.795 369.64,160.804C369.656,160.813 369.677,160.818 369.706,160.818C369.727,160.818 369.755,160.815 369.79,160.81Z" style="fill:white;fill-rule:nonzero;"/>
                    <path d="M369.905,160.417C369.905,160.209 369.963,160.054 370.079,159.953C370.176,159.87 370.295,159.828 370.434,159.828C370.589,159.828 370.716,159.879 370.814,159.981C370.913,160.082 370.962,160.222 370.962,160.402C370.962,160.547 370.94,160.661 370.897,160.744C370.853,160.827 370.79,160.892 370.707,160.938C370.623,160.984 370.533,161.007 370.434,161.007C370.276,161.007 370.149,160.956 370.051,160.855C369.954,160.754 369.905,160.608 369.905,160.417ZM370.102,160.417C370.102,160.562 370.133,160.67 370.196,160.742C370.259,160.814 370.339,160.85 370.434,160.85C370.529,160.85 370.608,160.814 370.671,160.741C370.734,160.669 370.765,160.559 370.765,160.411C370.765,160.272 370.734,160.166 370.67,160.094C370.607,160.022 370.528,159.986 370.434,159.986C370.339,159.986 370.259,160.022 370.196,160.094C370.133,160.165 370.102,160.273 370.102,160.417Z" style="fill:white;fill-rule:nonzero;"/>
                </g>
                <g>
                    <path d="M381.8,160.481L381.994,160.464C382.003,160.542 382.024,160.606 382.058,160.656C382.092,160.706 382.144,160.746 382.215,160.777C382.286,160.808 382.365,160.823 382.454,160.823C382.532,160.823 382.602,160.811 382.662,160.788C382.722,160.765 382.767,160.733 382.796,160.692C382.825,160.651 382.84,160.607 382.84,160.559C382.84,160.51 382.826,160.467 382.798,160.431C382.769,160.394 382.723,160.364 382.658,160.339C382.616,160.323 382.523,160.297 382.38,160.263C382.237,160.229 382.137,160.196 382.08,160.166C382.006,160.127 381.95,160.079 381.914,160.021C381.877,159.963 381.859,159.899 381.859,159.827C381.859,159.748 381.881,159.675 381.926,159.607C381.97,159.538 382.036,159.487 382.121,159.451C382.207,159.416 382.302,159.398 382.407,159.398C382.522,159.398 382.624,159.417 382.712,159.454C382.8,159.491 382.868,159.546 382.916,159.618C382.963,159.69 382.989,159.772 382.992,159.863L382.795,159.878C382.784,159.78 382.748,159.705 382.687,159.655C382.626,159.605 382.535,159.58 382.415,159.58C382.291,159.58 382.2,159.602 382.143,159.648C382.086,159.694 382.058,159.749 382.058,159.813C382.058,159.869 382.078,159.915 382.118,159.951C382.158,159.987 382.261,160.024 382.429,160.062C382.596,160.1 382.711,160.133 382.773,160.162C382.864,160.203 382.931,160.256 382.974,160.32C383.017,160.384 383.039,160.458 383.039,160.542C383.039,160.625 383.015,160.703 382.968,160.776C382.92,160.849 382.852,160.906 382.763,160.947C382.674,160.988 382.574,161.008 382.463,161.008C382.322,161.008 382.204,160.987 382.109,160.946C382.014,160.905 381.939,160.844 381.885,160.761C381.831,160.679 381.802,160.585 381.8,160.481Z" style="fill:white;fill-rule:nonzero;"/>
                    <path d="M384.032,160.842C383.961,160.902 383.893,160.945 383.827,160.97C383.762,160.994 383.691,161.007 383.616,161.007C383.493,161.007 383.397,160.977 383.331,160.916C383.264,160.856 383.231,160.778 383.231,160.684C383.231,160.629 383.244,160.578 383.269,160.533C383.294,160.487 383.327,160.45 383.367,160.423C383.408,160.395 383.454,160.374 383.505,160.36C383.542,160.35 383.599,160.341 383.675,160.331C383.829,160.313 383.943,160.291 384.016,160.266C384.016,160.239 384.017,160.223 384.017,160.216C384.017,160.138 383.999,160.083 383.963,160.051C383.914,160.008 383.841,159.986 383.745,159.986C383.655,159.986 383.589,160.002 383.546,160.034C383.503,160.065 383.471,160.121 383.451,160.201L383.264,160.175C383.281,160.095 383.309,160.031 383.348,159.982C383.387,159.932 383.443,159.894 383.517,159.868C383.59,159.841 383.676,159.828 383.773,159.828C383.869,159.828 383.947,159.839 384.007,159.862C384.067,159.885 384.112,159.913 384.14,159.948C384.168,159.982 384.188,160.025 384.199,160.078C384.206,160.11 384.209,160.169 384.209,160.254L384.209,160.509C384.209,160.687 384.213,160.799 384.221,160.846C384.229,160.893 384.245,160.938 384.27,160.981L384.07,160.981C384.05,160.942 384.037,160.895 384.032,160.842ZM384.016,160.415C383.946,160.444 383.842,160.468 383.704,160.488C383.625,160.499 383.569,160.512 383.537,160.526C383.504,160.54 383.479,160.561 383.461,160.588C383.444,160.615 383.435,160.645 383.435,160.679C383.435,160.73 383.454,160.772 383.493,160.806C383.531,160.84 383.588,160.857 383.662,160.857C383.736,160.857 383.801,160.841 383.859,160.809C383.916,160.777 383.958,160.733 383.985,160.677C384.005,160.633 384.016,160.57 384.016,160.485L384.016,160.415Z" style="fill:white;fill-rule:nonzero;"/>
                    <path d="M384.551,160.981L384.551,160.002L384.382,160.002L384.382,159.854L384.551,159.854L384.551,159.734C384.551,159.658 384.558,159.602 384.571,159.565C384.59,159.515 384.622,159.475 384.668,159.444C384.715,159.413 384.78,159.398 384.863,159.398C384.917,159.398 384.976,159.404 385.042,159.417L385.013,159.584C384.973,159.577 384.936,159.573 384.9,159.573C384.842,159.573 384.801,159.586 384.777,159.61C384.753,159.635 384.741,159.682 384.741,159.75L384.741,159.854L384.961,159.854L384.961,160.002L384.741,160.002L384.741,160.981L384.551,160.981Z" style="fill:white;fill-rule:nonzero;"/>
                    <path d="M385.882,160.618L386.079,160.643C386.048,160.758 385.99,160.848 385.906,160.911C385.822,160.975 385.714,161.007 385.583,161.007C385.418,161.007 385.287,160.956 385.191,160.854C385.094,160.753 385.046,160.61 385.046,160.427C385.046,160.237 385.095,160.09 385.192,159.985C385.29,159.881 385.417,159.828 385.573,159.828C385.723,159.828 385.846,159.879 385.942,159.982C386.038,160.085 386.085,160.229 386.085,160.415C386.085,160.427 386.085,160.444 386.084,160.466L385.243,160.466C385.25,160.59 385.285,160.685 385.348,160.751C385.411,160.817 385.49,160.85 385.584,160.85C385.654,160.85 385.714,160.831 385.764,160.794C385.813,160.758 385.852,160.699 385.882,160.618ZM385.254,160.309L385.884,160.309C385.875,160.214 385.851,160.143 385.811,160.096C385.751,160.022 385.672,159.985 385.575,159.985C385.487,159.985 385.413,160.015 385.353,160.073C385.293,160.132 385.26,160.211 385.254,160.309Z" style="fill:white;fill-rule:nonzero;"/>
                </g>
                <path d="M421.33,162.752C423.556,160.525 424.807,157.506 424.807,154.358C424.807,147.806 419.488,142.487 412.936,142.487C406.385,142.487 401.065,147.806 401.065,154.358C401.065,157.506 402.316,160.525 404.542,162.752" style="fill:none;stroke:rgb(0,255,157);stroke-width:0.72px;"/>
                <g>
                    <path d="M409.777,136.844C409.777,136.586 409.846,136.383 409.985,136.237C410.124,136.091 410.303,136.018 410.522,136.018C410.666,136.018 410.796,136.052 410.911,136.121C411.027,136.189 411.115,136.285 411.175,136.408C411.236,136.531 411.266,136.67 411.266,136.826C411.266,136.984 411.234,137.125 411.17,137.25C411.107,137.374 411.016,137.469 410.899,137.533C410.783,137.597 410.657,137.629 410.521,137.629C410.375,137.629 410.244,137.593 410.129,137.523C410.013,137.452 409.926,137.355 409.866,137.233C409.807,137.11 409.777,136.981 409.777,136.844ZM409.989,136.847C409.989,137.035 410.04,137.183 410.141,137.29C410.242,137.398 410.368,137.452 410.52,137.452C410.675,137.452 410.803,137.398 410.903,137.289C411.003,137.18 411.053,137.025 411.053,136.825C411.053,136.698 411.032,136.587 410.989,136.493C410.946,136.398 410.884,136.325 410.801,136.273C410.719,136.221 410.626,136.195 410.524,136.195C410.378,136.195 410.252,136.245 410.147,136.345C410.042,136.446 409.989,136.613 409.989,136.847Z" style="fill:white;fill-rule:nonzero;"/>
                    <path d="M412.246,137.602L412.246,137.436C412.158,137.564 412.039,137.628 411.888,137.628C411.822,137.628 411.759,137.615 411.702,137.589C411.644,137.564 411.601,137.532 411.573,137.493C411.545,137.455 411.526,137.407 411.514,137.352C411.507,137.314 411.503,137.255 411.503,137.173L411.503,136.474L411.694,136.474L411.694,137.1C411.694,137.2 411.698,137.267 411.705,137.302C411.717,137.352 411.743,137.391 411.782,137.42C411.821,137.449 411.869,137.463 411.926,137.463C411.984,137.463 412.037,137.448 412.088,137.419C412.138,137.39 412.174,137.35 412.194,137.299C412.215,137.248 412.226,137.175 412.226,137.079L412.226,136.474L412.417,136.474L412.417,137.602L412.246,137.602Z" style="fill:white;fill-rule:nonzero;"/>
                    <path d="M413.134,137.431L413.161,137.6C413.108,137.611 413.059,137.617 413.017,137.617C412.948,137.617 412.894,137.606 412.856,137.584C412.817,137.562 412.79,137.533 412.775,137.498C412.759,137.462 412.751,137.387 412.751,137.272L412.751,136.623L412.611,136.623L412.611,136.474L412.751,136.474L412.751,136.195L412.942,136.08L412.942,136.474L413.134,136.474L413.134,136.623L412.942,136.623L412.942,137.283C412.942,137.337 412.945,137.372 412.952,137.388C412.958,137.403 412.969,137.416 412.985,137.425C413,137.434 413.022,137.439 413.05,137.439C413.071,137.439 413.099,137.436 413.134,137.431Z" style="fill:white;fill-rule:nonzero;"/>
                    <path d="M413.321,138.034L413.321,136.474L413.495,136.474L413.495,136.621C413.536,136.564 413.582,136.521 413.634,136.492C413.686,136.463 413.748,136.449 413.822,136.449C413.918,136.449 414.003,136.474 414.077,136.523C414.15,136.573 414.206,136.643 414.243,136.733C414.281,136.823 414.3,136.922 414.3,137.03C414.3,137.145 414.279,137.249 414.238,137.341C414.196,137.434 414.136,137.505 414.057,137.554C413.978,137.603 413.895,137.628 413.808,137.628C413.744,137.628 413.687,137.614 413.637,137.587C413.586,137.56 413.544,137.526 413.512,137.485L413.512,138.034L413.321,138.034ZM413.494,137.045C413.494,137.19 413.523,137.297 413.582,137.366C413.641,137.436 413.712,137.47 413.795,137.47C413.88,137.47 413.953,137.435 414.014,137.363C414.074,137.291 414.104,137.18 414.104,137.029C414.104,136.885 414.075,136.777 414.016,136.706C413.957,136.634 413.886,136.599 413.804,136.599C413.722,136.599 413.65,136.637 413.588,136.713C413.525,136.789 413.494,136.9 413.494,137.045Z" style="fill:white;fill-rule:nonzero;"/>
                    <path d="M415.269,137.602L415.269,137.436C415.181,137.564 415.062,137.628 414.911,137.628C414.845,137.628 414.783,137.615 414.725,137.589C414.667,137.564 414.624,137.532 414.597,137.493C414.569,137.455 414.549,137.407 414.538,137.352C414.53,137.314 414.526,137.255 414.526,137.173L414.526,136.474L414.717,136.474L414.717,137.1C414.717,137.2 414.721,137.267 414.729,137.302C414.741,137.352 414.766,137.391 414.805,137.42C414.844,137.449 414.892,137.463 414.95,137.463C415.007,137.463 415.061,137.448 415.111,137.419C415.161,137.39 415.197,137.35 415.218,137.299C415.239,137.248 415.249,137.175 415.249,137.079L415.249,136.474L415.44,136.474L415.44,137.602L415.269,137.602Z" style="fill:white;fill-rule:nonzero;"/>
                    <path d="M416.157,137.431L416.185,137.6C416.131,137.611 416.083,137.617 416.04,137.617C415.971,137.617 415.917,137.606 415.879,137.584C415.841,137.562 415.814,137.533 415.798,137.498C415.783,137.462 415.775,137.387 415.775,137.272L415.775,136.623L415.635,136.623L415.635,136.474L415.775,136.474L415.775,136.195L415.965,136.08L415.965,136.474L416.157,136.474L416.157,136.623L415.965,136.623L415.965,137.283C415.965,137.337 415.968,137.372 415.975,137.388C415.982,137.403 415.993,137.416 416.008,137.425C416.023,137.434 416.045,137.439 416.073,137.439C416.094,137.439 416.122,137.436 416.157,137.431Z" style="fill:white;fill-rule:nonzero;"/>
                </g>
                <circle cx="446.827" cy="165.413" r="3.353" style="stroke:rgb(57,57,70);stroke-width:0.97px;"/>
            </g>
        </g>
        <g id="front-panel">
            <path d="M456.176,56.821C456.176,54.436 454.24,52.5 451.855,52.5L312.498,52.5C310.113,52.5 308.176,54.436 308.176,56.821L308.176,88.179C308.176,90.564 310.113,92.5 312.498,92.5L451.855,92.5C454.24,92.5 456.176,90.564 456.176,88.179L456.176,56.821Z" style="fill:rgb(46,46,56);"/>
            <circle cx="446.918" cy="61.128" r="4.531" style="fill:rgb(63,63,76);"/>
            <path d="M446.918,56.597L446.918,59.95" style="fill:none;stroke:white;stroke-width:0.48px;"/>
            <g>
                <path d="M322.863,71.73C327.564,71.73 331.381,75.547 331.381,80.248C331.381,84.949 327.564,88.766 322.863,88.766C318.162,88.766 314.345,84.949 314.345,80.248C314.345,75.547 318.162,71.73 322.863,71.73ZM322.863,73.663C319.229,73.663 316.278,76.613 316.278,80.248C316.278,83.882 319.229,86.833 322.863,86.833C326.497,86.833 329.448,83.882 329.448,80.248C329.448,76.613 326.497,73.663 322.863,73.663Z"/>
                <path d="M322.863,70.642C328.164,70.642 332.468,74.946 332.468,80.248C332.468,85.549 328.164,89.853 322.863,89.853C317.561,89.853 313.257,85.549 313.257,80.248C313.257,74.946 317.561,70.642 322.863,70.642ZM322.863,70.944C317.728,70.944 313.559,75.113 313.559,80.248C313.559,85.382 317.728,89.551 322.863,89.551C327.997,89.551 332.166,85.382 332.166,80.248C332.166,75.113 327.997,70.944 322.863,70.944Z"/>
                <circle cx="322.863" cy="80.248" r="2.9"/>
                <circle cx="322.863" cy="83.691" r="1.178"/>
                <circle cx="326.306" cy="80.248" r="1.178"/>
                <circle cx="319.419" cy="80.248" r="1.178"/>
            </g>
            <g>
                <path d="M348.507,71.73C353.209,71.73 357.025,75.547 357.025,80.248C357.025,84.949 353.209,88.766 348.507,88.766C343.806,88.766 339.989,84.949 339.989,80.248C339.989,75.547 343.806,71.73 348.507,71.73ZM348.507,73.663C344.873,73.663 341.923,76.613 341.923,80.248C341.923,83.882 344.873,86.833 348.507,86.833C352.142,86.833 355.092,83.882 355.092,80.248C355.092,76.613 352.142,73.663 348.507,73.663Z"/>
                <path d="M348.507,70.642C353.809,70.642 358.113,74.946 358.113,80.248C358.113,85.549 353.809,89.853 348.507,89.853C343.206,89.853 338.902,85.549 338.902,80.248C338.902,74.946 343.206,70.642 348.507,70.642ZM348.507,70.944C343.373,70.944 339.204,75.113 339.204,80.248C339.204,85.382 343.373,89.551 348.507,89.551C353.642,89.551 357.811,85.382 357.811,80.248C357.811,75.113 353.642,70.944 348.507,70.944Z"/>
                <circle cx="348.507" cy="80.248" r="2.9"/>
                <circle cx="348.507" cy="83.691" r="1.178"/>
                <circle cx="351.951" cy="80.248" r="1.178"/>
                <circle cx="345.064" cy="80.248" r="1.178"/>
            </g>
            <path d="M327.092,65.357C328.213,64.235 328.844,62.714 328.844,61.128C328.844,57.827 326.164,55.147 322.863,55.147C319.562,55.147 316.882,57.827 316.882,61.128C316.882,62.714 317.512,64.235 318.634,65.357" style="fill:none;stroke:rgb(0,255,157);stroke-width:0.72px;"/>
            <path d="M352.736,65.357C353.858,64.235 354.488,62.714 354.488,61.128C354.488,57.827 351.808,55.147 348.507,55.147C345.207,55.147 342.527,57.827 342.527,61.128C342.527,62.714 343.157,64.235 344.278,65.357" style="fill:none;stroke:rgb(0,255,157);stroke-width:0.72px;"/>
            <circle cx="368.806" cy="61.671" r="2.628" style="fill:rgb(109,109,123);stroke:black;stroke-width:0.48px;"/>
            <circle cx="383.939" cy="61.671" r="2.628" style="fill:rgb(109,109,123);stroke:black;stroke-width:0.48px;"/>
            <circle cx="368.806" cy="73.542" r="2.628" style="fill:rgb(109,109,123);stroke:black;stroke-width:0.48px;"/>
            <circle cx="383.939" cy="73.542" r="2.628" style="fill:rgb(109,109,123);stroke:black;stroke-width:0.48px;"/>
            <circle cx="368.806" cy="85.413" r="2.628" style="fill:rgb(109,109,123);stroke:black;stroke-width:0.48px;"/>
            <circle cx="383.939" cy="85.413" r="2.628" style="fill:rgb(109,109,123);stroke:black;stroke-width:0.48px;"/>
            <g>
                <path d="M365.881,56.83L366.075,56.813C366.085,56.891 366.106,56.955 366.14,57.005C366.173,57.055 366.226,57.095 366.296,57.126C366.367,57.157 366.447,57.172 366.535,57.172C366.614,57.172 366.683,57.16 366.743,57.137C366.804,57.114 366.848,57.082 366.878,57.041C366.907,57 366.922,56.956 366.922,56.908C366.922,56.859 366.908,56.816 366.879,56.78C366.851,56.743 366.804,56.713 366.739,56.688C366.697,56.672 366.605,56.646 366.462,56.612C366.319,56.578 366.219,56.545 366.162,56.515C366.087,56.476 366.032,56.427 365.995,56.37C365.959,56.312 365.941,56.247 365.941,56.176C365.941,56.097 365.963,56.024 366.008,55.956C366.052,55.887 366.117,55.835 366.203,55.8C366.289,55.765 366.384,55.747 366.489,55.747C366.604,55.747 366.706,55.766 366.794,55.803C366.882,55.84 366.95,55.895 366.997,55.967C367.045,56.039 367.07,56.121 367.074,56.212L366.876,56.227C366.866,56.129 366.83,56.054 366.768,56.004C366.707,55.954 366.617,55.929 366.497,55.929C366.372,55.929 366.282,55.951 366.225,55.997C366.168,56.043 366.139,56.098 366.139,56.162C366.139,56.218 366.159,56.264 366.2,56.3C366.239,56.336 366.343,56.373 366.51,56.411C366.678,56.449 366.793,56.482 366.855,56.511C366.946,56.552 367.012,56.605 367.056,56.669C367.099,56.733 367.12,56.807 367.12,56.891C367.12,56.973 367.097,57.052 367.049,57.125C367.002,57.198 366.934,57.255 366.845,57.296C366.756,57.336 366.656,57.357 366.545,57.357C366.404,57.357 366.286,57.336 366.191,57.295C366.095,57.254 366.021,57.192 365.967,57.11C365.912,57.027 365.884,56.934 365.881,56.83Z" style="fill:white;fill-rule:nonzero;"/>
                <path d="M368.149,56.967L368.347,56.992C368.316,57.107 368.258,57.197 368.174,57.26C368.09,57.324 367.982,57.356 367.851,57.356C367.686,57.356 367.555,57.305 367.459,57.203C367.362,57.102 367.314,56.959 367.314,56.776C367.314,56.586 367.363,56.439 367.46,56.334C367.558,56.229 367.685,56.177 367.84,56.177C367.991,56.177 368.114,56.228 368.21,56.331C368.306,56.434 368.353,56.578 368.353,56.764C368.353,56.776 368.353,56.793 368.352,56.815L367.511,56.815C367.518,56.939 367.553,57.034 367.616,57.1C367.679,57.166 367.758,57.199 367.852,57.199C367.922,57.199 367.982,57.18 368.032,57.143C368.081,57.107 368.12,57.048 368.149,56.967ZM367.522,56.658L368.152,56.658C368.143,56.563 368.119,56.492 368.079,56.445C368.018,56.371 367.94,56.334 367.843,56.334C367.755,56.334 367.681,56.364 367.621,56.422C367.561,56.481 367.528,56.56 367.522,56.658Z" style="fill:white;fill-rule:nonzero;"/>
                <rect x="368.583" y="55.774" width="0.191" height="1.557" style="fill:white;fill-rule:nonzero;"/>
                <path d="M369.842,56.967L370.04,56.992C370.008,57.107 369.951,57.197 369.867,57.26C369.782,57.324 369.675,57.356 369.544,57.356C369.379,57.356 369.248,57.305 369.151,57.203C369.055,57.102 369.006,56.959 369.006,56.776C369.006,56.586 369.055,56.439 369.153,56.334C369.251,56.229 369.377,56.177 369.533,56.177C369.684,56.177 369.807,56.228 369.903,56.331C369.998,56.434 370.046,56.578 370.046,56.764C370.046,56.776 370.046,56.793 370.045,56.815L369.204,56.815C369.211,56.939 369.246,57.034 369.309,57.1C369.372,57.166 369.451,57.199 369.545,57.199C369.615,57.199 369.675,57.18 369.724,57.143C369.774,57.107 369.813,57.048 369.842,56.967ZM369.215,56.658L369.844,56.658C369.836,56.563 369.812,56.492 369.772,56.445C369.711,56.371 369.632,56.334 369.535,56.334C369.447,56.334 369.374,56.364 369.314,56.422C369.254,56.481 369.221,56.56 369.215,56.658Z" style="fill:white;fill-rule:nonzero;"/>
                <path d="M371.016,56.917L371.203,56.942C371.183,57.071 371.13,57.173 371.046,57.246C370.961,57.319 370.857,57.356 370.734,57.356C370.58,57.356 370.456,57.305 370.362,57.204C370.268,57.104 370.221,56.959 370.221,56.771C370.221,56.649 370.241,56.542 370.282,56.451C370.322,56.36 370.384,56.291 370.466,56.246C370.548,56.2 370.638,56.177 370.735,56.177C370.858,56.177 370.958,56.208 371.036,56.27C371.114,56.332 371.163,56.42 371.185,56.534L371,56.563C370.982,56.487 370.951,56.43 370.906,56.392C370.861,56.353 370.806,56.334 370.743,56.334C370.646,56.334 370.568,56.369 370.508,56.438C370.448,56.507 370.418,56.616 370.418,56.765C370.418,56.917 370.447,57.027 370.505,57.096C370.563,57.164 370.639,57.199 370.732,57.199C370.807,57.199 370.87,57.176 370.92,57.13C370.97,57.084 371.002,57.013 371.016,56.917Z" style="fill:white;fill-rule:nonzero;"/>
                <path d="M371.784,57.159L371.812,57.328C371.758,57.34 371.71,57.345 371.668,57.345C371.598,57.345 371.544,57.334 371.506,57.312C371.468,57.29 371.441,57.261 371.425,57.226C371.41,57.19 371.402,57.115 371.402,57L371.402,56.351L371.262,56.351L371.262,56.203L371.402,56.203L371.402,55.923L371.592,55.809L371.592,56.203L371.784,56.203L371.784,56.351L371.592,56.351L371.592,57.011C371.592,57.065 371.596,57.1 371.602,57.116C371.609,57.131 371.62,57.144 371.635,57.153C371.65,57.162 371.672,57.167 371.7,57.167C371.722,57.167 371.75,57.164 371.784,57.159Z" style="fill:white;fill-rule:nonzero;"/>
            </g>
            <g>
                <path d="M382.707,57.33L382.707,56.958L382.032,56.958L382.032,56.782L382.742,55.774L382.898,55.774L382.898,56.782L383.108,56.782L383.108,56.958L382.898,56.958L382.898,57.33L382.707,57.33ZM382.707,56.782L382.707,56.08L382.219,56.782L382.707,56.782Z" style="fill:white;fill-rule:nonzero;"/>
                <path d="M383.598,56.486C383.519,56.457 383.46,56.416 383.422,56.362C383.383,56.308 383.364,56.244 383.364,56.169C383.364,56.055 383.405,55.96 383.486,55.883C383.568,55.806 383.676,55.767 383.811,55.767C383.947,55.767 384.057,55.807 384.139,55.886C384.222,55.964 384.264,56.061 384.264,56.174C384.264,56.246 384.245,56.309 384.207,56.362C384.169,56.416 384.111,56.457 384.034,56.486C384.13,56.517 384.203,56.567 384.253,56.637C384.302,56.706 384.327,56.789 384.327,56.885C384.327,57.018 384.28,57.13 384.186,57.221C384.092,57.312 383.968,57.357 383.814,57.357C383.661,57.357 383.537,57.311 383.443,57.22C383.349,57.129 383.302,57.016 383.302,56.88C383.302,56.779 383.327,56.694 383.379,56.626C383.43,56.557 383.503,56.511 383.598,56.486ZM383.56,56.162C383.56,56.236 383.583,56.296 383.631,56.343C383.678,56.389 383.74,56.413 383.816,56.413C383.889,56.413 383.95,56.39 383.997,56.343C384.044,56.297 384.067,56.24 384.067,56.173C384.067,56.103 384.043,56.044 383.994,55.996C383.946,55.948 383.886,55.924 383.813,55.924C383.741,55.924 383.68,55.948 383.632,55.994C383.584,56.041 383.56,56.097 383.56,56.162ZM383.498,56.881C383.498,56.936 383.511,56.988 383.537,57.039C383.563,57.09 383.601,57.13 383.652,57.158C383.703,57.186 383.758,57.2 383.817,57.2C383.908,57.2 383.983,57.17 384.043,57.112C384.102,57.053 384.132,56.978 384.132,56.887C384.132,56.795 384.101,56.719 384.04,56.659C383.979,56.599 383.902,56.569 383.81,56.569C383.72,56.569 383.646,56.599 383.587,56.658C383.528,56.718 383.498,56.792 383.498,56.881Z" style="fill:white;fill-rule:nonzero;"/>
                <path d="M385.036,57.33L384.433,55.774L384.656,55.774L385.06,56.904C385.093,56.995 385.12,57.08 385.142,57.159C385.166,57.074 385.194,56.989 385.226,56.904L385.646,55.774L385.857,55.774L385.247,57.33L385.036,57.33Z" style="fill:white;fill-rule:nonzero;"/>
            </g>
            <g>
                <rect x="367.256" y="67.644" width="0.206" height="1.557" style="fill:white;fill-rule:nonzero;"/>
                <path d="M367.801,69.201L367.801,68.073L367.973,68.073L367.973,68.234C368.055,68.11 368.175,68.048 368.332,68.048C368.399,68.048 368.462,68.06 368.519,68.085C368.576,68.109 368.619,68.141 368.647,68.181C368.675,68.22 368.695,68.267 368.706,68.322C368.713,68.357 368.717,68.419 368.717,68.508L368.717,69.201L368.526,69.201L368.526,68.515C368.526,68.437 368.518,68.379 368.504,68.34C368.489,68.302 368.462,68.271 368.424,68.248C368.387,68.225 368.342,68.214 368.291,68.214C368.21,68.214 368.14,68.239 368.08,68.291C368.021,68.343 367.992,68.441 367.992,68.585L367.992,69.201L367.801,69.201Z" style="fill:white;fill-rule:nonzero;"/>
                <path d="M368.934,68.865L369.123,68.835C369.133,68.911 369.163,68.969 369.211,69.009C369.26,69.049 369.328,69.069 369.415,69.069C369.502,69.069 369.568,69.052 369.61,69.016C369.653,68.98 369.674,68.938 369.674,68.89C369.674,68.847 369.655,68.813 369.618,68.788C369.591,68.771 369.526,68.749 369.422,68.723C369.282,68.688 369.185,68.657 369.131,68.631C369.076,68.606 369.035,68.57 369.007,68.524C368.979,68.479 368.965,68.428 368.965,68.373C368.965,68.323 368.977,68.276 369,68.233C369.023,68.19 369.054,68.155 369.094,68.126C369.124,68.105 369.164,68.086 369.216,68.071C369.267,68.056 369.322,68.048 369.381,68.048C369.469,68.048 369.547,68.061 369.614,68.086C369.681,68.112 369.73,68.146 369.762,68.19C369.794,68.233 369.816,68.291 369.828,68.364L369.641,68.39C369.632,68.332 369.608,68.286 369.567,68.254C369.526,68.221 369.469,68.205 369.395,68.205C369.307,68.205 369.244,68.22 369.207,68.249C369.169,68.278 369.15,68.312 369.15,68.351C369.15,68.375 369.158,68.398 369.174,68.417C369.189,68.438 369.214,68.455 369.247,68.468C369.266,68.476 369.322,68.492 369.416,68.517C369.551,68.553 369.645,68.583 369.699,68.606C369.752,68.629 369.794,68.662 369.825,68.706C369.855,68.75 369.87,68.805 369.87,68.87C369.87,68.934 369.852,68.994 369.815,69.05C369.777,69.106 369.724,69.15 369.654,69.18C369.584,69.211 369.504,69.227 369.416,69.227C369.269,69.227 369.158,69.196 369.081,69.135C369.004,69.074 368.955,68.984 368.934,68.865Z" style="fill:white;fill-rule:nonzero;"/>
                <path d="M370.515,69.03L370.542,69.199C370.489,69.21 370.441,69.216 370.398,69.216C370.329,69.216 370.275,69.205 370.237,69.183C370.198,69.161 370.171,69.132 370.156,69.097C370.14,69.061 370.133,68.986 370.133,68.871L370.133,68.222L369.992,68.222L369.992,68.073L370.133,68.073L370.133,67.794L370.323,67.679L370.323,68.073L370.515,68.073L370.515,68.222L370.323,68.222L370.323,68.882C370.323,68.936 370.326,68.971 370.333,68.987C370.339,69.002 370.35,69.015 370.366,69.024C370.381,69.033 370.403,69.038 370.431,69.038C370.452,69.038 370.48,69.035 370.515,69.03Z" style="fill:white;fill-rule:nonzero;"/>
            </g>
            <g>
                <path d="M382.607,69.201L383.204,67.644L383.426,67.644L384.064,69.201L383.829,69.201L383.647,68.73L382.996,68.73L382.825,69.201L382.607,69.201ZM383.056,68.562L383.584,68.562L383.421,68.131C383.371,68 383.335,67.892 383.311,67.808C383.291,67.908 383.263,68.007 383.227,68.105L383.056,68.562Z" style="fill:white;fill-rule:nonzero;"/>
                <path d="M384.205,67.864L384.205,67.644L384.396,67.644L384.396,67.864L384.205,67.864ZM384.205,69.201L384.205,68.073L384.396,68.073L384.396,69.201L384.205,69.201Z" style="fill:white;fill-rule:nonzero;"/>
                <path d="M384.685,69.201L384.685,68.073L384.857,68.073L384.857,68.244C384.901,68.164 384.941,68.112 384.978,68.086C385.016,68.061 385.056,68.048 385.101,68.048C385.165,68.048 385.231,68.068 385.297,68.109L385.232,68.287C385.185,68.259 385.138,68.245 385.091,68.245C385.05,68.245 385.012,68.258 384.979,68.283C384.946,68.308 384.922,68.343 384.908,68.388C384.887,68.456 384.876,68.53 384.876,68.611L384.876,69.201L384.685,69.201Z" style="fill:white;fill-rule:nonzero;"/>
            </g>
            <g>
                <path d="M366.566,80.981L367.163,79.425L367.385,79.425L368.023,80.981L367.788,80.981L367.606,80.51L366.955,80.51L366.784,80.981L366.566,80.981ZM367.015,80.342L367.543,80.342L367.38,79.911C367.33,79.78 367.294,79.672 367.27,79.588C367.25,79.688 367.222,79.787 367.186,79.885L367.015,80.342Z" style="fill:white;fill-rule:nonzero;"/>
                <path d="M368.902,80.981L368.902,80.816C368.814,80.943 368.695,81.007 368.544,81.007C368.477,81.007 368.415,80.994 368.358,80.969C368.3,80.943 368.257,80.911 368.229,80.873C368.201,80.834 368.181,80.787 368.17,80.731C368.162,80.693 368.158,80.634 368.158,80.552L368.158,79.854L368.35,79.854L368.35,80.479C368.35,80.579 368.353,80.646 368.361,80.681C368.373,80.731 368.399,80.771 368.438,80.799C368.477,80.828 368.525,80.842 368.582,80.842C368.639,80.842 368.693,80.828 368.744,80.798C368.794,80.769 368.829,80.729 368.85,80.678C368.871,80.628 368.882,80.554 368.882,80.458L368.882,79.854L369.073,79.854L369.073,80.981L368.902,80.981Z" style="fill:white;fill-rule:nonzero;"/>
                <path d="M369.79,80.81L369.817,80.979C369.763,80.991 369.715,80.996 369.673,80.996C369.603,80.996 369.55,80.985 369.511,80.963C369.473,80.941 369.446,80.913 369.431,80.877C369.415,80.841 369.407,80.766 369.407,80.651L369.407,80.002L369.267,80.002L369.267,79.854L369.407,79.854L369.407,79.574L369.597,79.46L369.597,79.854L369.79,79.854L369.79,80.002L369.597,80.002L369.597,80.662C369.597,80.716 369.601,80.751 369.607,80.767C369.614,80.782 369.625,80.795 369.64,80.804C369.656,80.813 369.677,80.818 369.706,80.818C369.727,80.818 369.755,80.815 369.79,80.81Z" style="fill:white;fill-rule:nonzero;"/>
                <path d="M369.905,80.417C369.905,80.209 369.963,80.054 370.079,79.953C370.176,79.87 370.295,79.828 370.434,79.828C370.589,79.828 370.716,79.879 370.814,79.981C370.913,80.082 370.962,80.222 370.962,80.402C370.962,80.547 370.94,80.661 370.897,80.744C370.853,80.827 370.79,80.892 370.707,80.938C370.623,80.984 370.533,81.007 370.434,81.007C370.276,81.007 370.149,80.956 370.051,80.855C369.954,80.754 369.905,80.608 369.905,80.417ZM370.102,80.417C370.102,80.562 370.133,80.67 370.196,80.742C370.259,80.814 370.339,80.85 370.434,80.85C370.529,80.85 370.608,80.814 370.671,80.741C370.734,80.669 370.765,80.559 370.765,80.411C370.765,80.272 370.734,80.166 370.67,80.094C370.607,80.022 370.528,79.986 370.434,79.986C370.339,79.986 370.259,80.022 370.196,80.094C370.133,80.165 370.102,80.273 370.102,80.417Z" style="fill:white;fill-rule:nonzero;"/>
            </g>
            <g>
                <path d="M381.8,80.481L381.994,80.464C382.003,80.542 382.024,80.606 382.058,80.656C382.092,80.706 382.144,80.746 382.215,80.777C382.286,80.808 382.365,80.823 382.454,80.823C382.532,80.823 382.602,80.811 382.662,80.788C382.722,80.765 382.767,80.733 382.796,80.692C382.825,80.651 382.84,80.607 382.84,80.559C382.84,80.51 382.826,80.467 382.798,80.431C382.769,80.394 382.723,80.364 382.658,80.339C382.616,80.323 382.523,80.297 382.38,80.263C382.237,80.229 382.137,80.196 382.08,80.166C382.006,80.127 381.95,80.079 381.914,80.021C381.877,79.963 381.859,79.899 381.859,79.827C381.859,79.748 381.881,79.675 381.926,79.607C381.97,79.538 382.036,79.487 382.121,79.451C382.207,79.416 382.302,79.398 382.407,79.398C382.522,79.398 382.624,79.417 382.712,79.454C382.8,79.491 382.868,79.546 382.916,79.618C382.963,79.69 382.989,79.772 382.992,79.863L382.795,79.878C382.784,79.78 382.748,79.705 382.687,79.655C382.626,79.605 382.535,79.58 382.415,79.58C382.291,79.58 382.2,79.602 382.143,79.648C382.086,79.694 382.058,79.749 382.058,79.813C382.058,79.869 382.078,79.915 382.118,79.951C382.158,79.987 382.261,80.024 382.429,80.062C382.596,80.1 382.711,80.133 382.773,80.162C382.864,80.203 382.931,80.256 382.974,80.32C383.017,80.384 383.039,80.458 383.039,80.542C383.039,80.625 383.015,80.703 382.968,80.776C382.92,80.849 382.852,80.906 382.763,80.947C382.674,80.988 382.574,81.008 382.463,81.008C382.322,81.008 382.204,80.987 382.109,80.946C382.014,80.905 381.939,80.844 381.885,80.761C381.831,80.679 381.802,80.585 381.8,80.481Z" style="fill:white;fill-rule:nonzero;"/>
                <path d="M384.032,80.842C383.961,80.902 383.893,80.945 383.827,80.97C383.762,80.994 383.691,81.007 383.616,81.007C383.493,81.007 383.397,80.977 383.331,80.916C383.264,80.856 383.231,80.778 383.231,80.684C383.231,80.629 383.244,80.578 383.269,80.533C383.294,80.487 383.327,80.45 383.367,80.423C383.408,80.395 383.454,80.374 383.505,80.36C383.542,80.35 383.599,80.341 383.675,80.331C383.829,80.313 383.943,80.291 384.016,80.266C384.016,80.239 384.017,80.223 384.017,80.216C384.017,80.138 383.999,80.083 383.963,80.051C383.914,80.008 383.841,79.986 383.745,79.986C383.655,79.986 383.589,80.002 383.546,80.034C383.503,80.065 383.471,80.121 383.451,80.201L383.264,80.175C383.281,80.095 383.309,80.031 383.348,79.982C383.387,79.932 383.443,79.894 383.517,79.868C383.59,79.841 383.676,79.828 383.773,79.828C383.869,79.828 383.947,79.839 384.007,79.862C384.067,79.885 384.112,79.913 384.14,79.948C384.168,79.982 384.188,80.025 384.199,80.078C384.206,80.11 384.209,80.169 384.209,80.254L384.209,80.509C384.209,80.687 384.213,80.799 384.221,80.846C384.229,80.893 384.245,80.938 384.27,80.981L384.07,80.981C384.05,80.942 384.037,80.895 384.032,80.842ZM384.016,80.415C383.946,80.444 383.842,80.468 383.704,80.488C383.625,80.499 383.569,80.512 383.537,80.526C383.504,80.54 383.479,80.561 383.461,80.588C383.444,80.615 383.435,80.645 383.435,80.679C383.435,80.73 383.454,80.772 383.493,80.806C383.531,80.84 383.588,80.857 383.662,80.857C383.736,80.857 383.801,80.841 383.859,80.809C383.916,80.777 383.958,80.733 383.985,80.677C384.005,80.633 384.016,80.57 384.016,80.485L384.016,80.415Z" style="fill:white;fill-rule:nonzero;"/>
                <path d="M384.551,80.981L384.551,80.002L384.382,80.002L384.382,79.854L384.551,79.854L384.551,79.734C384.551,79.658 384.558,79.602 384.571,79.565C384.59,79.515 384.622,79.475 384.668,79.444C384.715,79.413 384.78,79.398 384.863,79.398C384.917,79.398 384.976,79.404 385.042,79.417L385.013,79.584C384.973,79.577 384.936,79.573 384.9,79.573C384.842,79.573 384.801,79.586 384.777,79.61C384.753,79.635 384.741,79.682 384.741,79.75L384.741,79.854L384.961,79.854L384.961,80.002L384.741,80.002L384.741,80.981L384.551,80.981Z" style="fill:white;fill-rule:nonzero;"/>
                <path d="M385.882,80.618L386.079,80.643C386.048,80.758 385.99,80.848 385.906,80.911C385.822,80.975 385.714,81.007 385.583,81.007C385.418,81.007 385.287,80.956 385.191,80.854C385.094,80.753 385.046,80.61 385.046,80.427C385.046,80.237 385.095,80.09 385.192,79.985C385.29,79.881 385.417,79.828 385.573,79.828C385.723,79.828 385.846,79.879 385.942,79.982C386.038,80.085 386.085,80.229 386.085,80.415C386.085,80.427 386.085,80.444 386.084,80.466L385.243,80.466C385.25,80.59 385.285,80.685 385.348,80.751C385.411,80.817 385.49,80.85 385.584,80.85C385.654,80.85 385.714,80.831 385.764,80.794C385.813,80.758 385.852,80.699 385.882,80.618ZM385.254,80.309L385.884,80.309C385.875,80.214 385.851,80.143 385.811,80.096C385.751,80.022 385.672,79.985 385.575,79.985C385.487,79.985 385.413,80.015 385.353,80.073C385.293,80.132 385.26,80.211 385.254,80.309Z" style="fill:white;fill-rule:nonzero;"/>
            </g>
            <path d="M421.33,82.752C423.556,80.525 424.807,77.506 424.807,74.358C424.807,67.806 419.488,62.487 412.936,62.487C406.385,62.487 401.065,67.806 401.065,74.358C401.065,77.506 402.316,80.525 404.542,82.752" style="fill:none;stroke:rgb(0,255,157);stroke-width:0.72px;"/>
            <g>
                <path d="M409.777,56.844C409.777,56.586 409.846,56.383 409.985,56.237C410.124,56.091 410.303,56.018 410.522,56.018C410.666,56.018 410.796,56.052 410.911,56.121C411.027,56.189 411.115,56.285 411.175,56.408C411.236,56.531 411.266,56.67 411.266,56.826C411.266,56.984 411.234,57.125 411.17,57.25C411.107,57.374 411.016,57.469 410.899,57.533C410.783,57.597 410.657,57.629 410.521,57.629C410.375,57.629 410.244,57.593 410.129,57.523C410.013,57.452 409.926,57.355 409.866,57.233C409.807,57.11 409.777,56.981 409.777,56.844ZM409.989,56.847C409.989,57.035 410.04,57.183 410.141,57.29C410.242,57.398 410.368,57.452 410.52,57.452C410.675,57.452 410.803,57.398 410.903,57.289C411.003,57.18 411.053,57.025 411.053,56.825C411.053,56.698 411.032,56.587 410.989,56.493C410.946,56.398 410.884,56.325 410.801,56.273C410.719,56.221 410.626,56.195 410.524,56.195C410.378,56.195 410.252,56.245 410.147,56.345C410.042,56.446 409.989,56.613 409.989,56.847Z" style="fill:white;fill-rule:nonzero;"/>
                <path d="M412.246,57.602L412.246,57.436C412.158,57.564 412.039,57.628 411.888,57.628C411.822,57.628 411.759,57.615 411.702,57.589C411.644,57.564 411.601,57.532 411.573,57.493C411.545,57.455 411.526,57.407 411.514,57.352C411.507,57.314 411.503,57.255 411.503,57.173L411.503,56.474L411.694,56.474L411.694,57.1C411.694,57.2 411.698,57.267 411.705,57.302C411.717,57.352 411.743,57.391 411.782,57.42C411.821,57.449 411.869,57.463 411.926,57.463C411.984,57.463 412.037,57.448 412.088,57.419C412.138,57.39 412.174,57.35 412.194,57.299C412.215,57.248 412.226,57.175 412.226,57.079L412.226,56.474L412.417,56.474L412.417,57.602L412.246,57.602Z" style="fill:white;fill-rule:nonzero;"/>
                <path d="M413.134,57.431L413.161,57.6C413.108,57.611 413.059,57.617 413.017,57.617C412.948,57.617 412.894,57.606 412.856,57.584C412.817,57.562 412.79,57.533 412.775,57.498C412.759,57.462 412.751,57.387 412.751,57.272L412.751,56.623L412.611,56.623L412.611,56.474L412.751,56.474L412.751,56.195L412.942,56.08L412.942,56.474L413.134,56.474L413.134,56.623L412.942,56.623L412.942,57.283C412.942,57.337 412.945,57.372 412.952,57.388C412.958,57.403 412.969,57.416 412.985,57.425C413,57.434 413.022,57.439 413.05,57.439C413.071,57.439 413.099,57.436 413.134,57.431Z" style="fill:white;fill-rule:nonzero;"/>
                <path d="M413.321,58.034L413.321,56.474L413.495,56.474L413.495,56.621C413.536,56.564 413.582,56.521 413.634,56.492C413.686,56.463 413.748,56.449 413.822,56.449C413.918,56.449 414.003,56.474 414.077,56.523C414.15,56.573 414.206,56.643 414.243,56.733C414.281,56.823 414.3,56.922 414.3,57.03C414.3,57.145 414.279,57.249 414.238,57.341C414.196,57.434 414.136,57.505 414.057,57.554C413.978,57.603 413.895,57.628 413.808,57.628C413.744,57.628 413.687,57.614 413.637,57.587C413.586,57.56 413.544,57.526 413.512,57.485L413.512,58.034L413.321,58.034ZM413.494,57.045C413.494,57.19 413.523,57.297 413.582,57.366C413.641,57.436 413.712,57.47 413.795,57.47C413.88,57.47 413.953,57.435 414.014,57.363C414.074,57.291 414.104,57.18 414.104,57.029C414.104,56.885 414.075,56.777 414.016,56.706C413.957,56.634 413.886,56.599 413.804,56.599C413.722,56.599 413.65,56.637 413.588,56.713C413.525,56.789 413.494,56.9 413.494,57.045Z" style="fill:white;fill-rule:nonzero;"/>
                <path d="M415.269,57.602L415.269,57.436C415.181,57.564 415.062,57.628 414.911,57.628C414.845,57.628 414.783,57.615 414.725,57.589C414.667,57.564 414.624,57.532 414.597,57.493C414.569,57.455 414.549,57.407 414.538,57.352C414.53,57.314 414.526,57.255 414.526,57.173L414.526,56.474L414.717,56.474L414.717,57.1C414.717,57.2 414.721,57.267 414.729,57.302C414.741,57.352 414.766,57.391 414.805,57.42C414.844,57.449 414.892,57.463 414.95,57.463C415.007,57.463 415.061,57.448 415.111,57.419C415.161,57.39 415.197,57.35 415.218,57.299C415.239,57.248 415.249,57.175 415.249,57.079L415.249,56.474L415.44,56.474L415.44,57.602L415.269,57.602Z" style="fill:white;fill-rule:nonzero;"/>
                <path d="M416.157,57.431L416.185,57.6C416.131,57.611 416.083,57.617 416.04,57.617C415.971,57.617 415.917,57.606 415.879,57.584C415.841,57.562 415.814,57.533 415.798,57.498C415.783,57.462 415.775,57.387 415.775,57.272L415.775,56.623L415.635,56.623L415.635,56.474L415.775,56.474L415.775,56.195L415.965,56.08L415.965,56.474L416.157,56.474L416.157,56.623L415.965,56.623L415.965,57.283C415.965,57.337 415.968,57.372 415.975,57.388C415.982,57.403 415.993,57.416 416.008,57.425C416.023,57.434 416.045,57.439 416.073,57.439C416.094,57.439 416.122,57.436 416.157,57.431Z" style="fill:white;fill-rule:nonzero;"/>
            </g>
            <circle cx="446.827" cy="85.413" r="3.353" style="stroke:rgb(57,57,70);stroke-width:0.97px;"/>
        </g>
    </g>
</svg>
