<?xml version="1.0" encoding="UTF-8" standalone="no"?>
<!DOCTYPE svg PUBLIC "-//W3C//DTD SVG 1.1//EN" "http://www.w3.org/Graphics/SVG/1.1/DTD/svg11.dtd">
<svg width="305" viewBox="0 0 305 555" version="1.1" xmlns="http://www.w3.org/2000/svg"
    xmlns:xlink="http://www.w3.org/1999/xlink" xml:space="preserve"
    xmlns:serif="http://www.serif.com/"
    style="fill-rule:evenodd;clip-rule:evenodd;stroke-linecap:round;stroke-linejoin:round;stroke-miterlimit:1.5;height:auto"
    aria-labelledby="p-title">
    <title id="p-title" lang="en">The body is painted with the iconic red</title>
    <g id="painter">
        <g id="scarlett-body-input">
            <path d="M231.402,141.355c-0,-5.439 -4.416,-9.855 -9.855,-9.855l-138.097,-0c-5.439,-0 -9.855,4.416 -9.855,9.855l-0,30.29c-0,5.439 4.416,9.855 9.855,9.855l138.097,-0c5.439,-0 9.855,-4.416 9.855,-9.855l-0,-30.29Z" style="fill:rgb(241,241,241);"/>
            <path d="M231.402,141.355l-0,30.29c-0,5.439 -4.416,9.855 -9.855,9.855l-138.097,-0c-5.439,-0 -9.855,-4.416 -9.855,-9.855l-0,-30.29c-0,-5.439 4.416,-9.855 9.855,-9.855l138.097,-0c5.439,-0 9.855,4.416 9.855,9.855Zm-5,-0c-0,-2.68 -2.176,-4.855 -4.855,-4.855l-138.097,-0c-2.68,-0 -4.855,2.175 -4.855,4.855l-0,30.29c-0,2.68 2.175,4.855 4.855,4.855l138.097,-0c2.679,-0 4.855,-2.175 4.855,-4.855l-0,-30.29Z" style="fill:rgb(154,154,154);"/>
        </g>
        <g id="scarlett-body-output">
            <path d="M231.402,141.355c-0,-5.439 -4.416,-9.855 -9.855,-9.855l-138.097,-0c-5.439,-0 -9.855,4.416 -9.855,9.855l-0,30.29c-0,5.439 4.416,9.855 9.855,9.855l138.097,-0c5.439,-0 9.855,-4.416 9.855,-9.855l-0,-30.29Z" style="fill:rgb(255,192,192);"/>
            <path d="M231.402,141.355l-0,30.29c-0,5.439 -4.416,9.855 -9.855,9.855l-138.097,-0c-5.439,-0 -9.855,-4.416 -9.855,-9.855l-0,-30.29c-0,-5.439 4.416,-9.855 9.855,-9.855l138.097,-0c5.439,-0 9.855,4.416 9.855,9.855Zm-5,-0c-0,-2.68 -2.176,-4.855 -4.855,-4.855l-138.097,-0c-2.68,-0 -4.855,2.175 -4.855,4.855l-0,30.29c-0,2.68 2.175,4.855 4.855,4.855l138.097,-0c2.679,-0 4.855,-2.175 4.855,-4.855l-0,-30.29Z" style="fill:rgb(242,0,57);"/>
        </g>
        <g id="clouds">
            <path d="M166.018,140.14c0,-4.038 2.737,-7.316 6.108,-7.316c3.372,-0 6.109,3.278 6.109,7.316c3.157,-2.518 7.426,-2.422 9.528,0.214c2.102,2.636 1.245,6.819 -1.912,9.337c3.937,0.898 6.524,4.296 5.774,7.583c-0.75,3.287 -4.555,5.226 -8.492,4.327c1.752,3.638 0.708,7.779 -2.329,9.242c-3.037,1.463 -6.926,-0.303 -8.678,-3.941c-1.752,3.638 -5.64,5.404 -8.677,3.941c-3.038,-1.463 -4.081,-5.604 -2.329,-9.242c-3.937,0.899 -7.742,-1.04 -8.492,-4.327c-0.75,-3.287 1.837,-6.685 5.773,-7.583c-3.157,-2.518 -4.013,-6.701 -1.911,-9.337c2.102,-2.636 6.371,-2.732 9.528,-0.214Z" style="fill:rgb(243,0,57);"/>
            <path d="M218.797,132.383c2.107,-2.377 4.995,-3.264 6.444,-1.979c1.45,1.285 0.915,4.258 -1.192,6.635c3.954,0.504 7.494,2.218 7.899,3.826c0.405,1.607 -2.477,2.504 -6.432,2c3.486,3.09 5.604,6.401 4.727,7.389c-0.876,0.989 -4.417,-0.717 -7.903,-3.807c0.974,3.866 0.43,6.835 -1.214,6.625c-1.645,-0.209 -3.771,-3.518 -4.745,-7.384c-2.108,2.377 -4.995,3.264 -6.445,1.979c-1.449,-1.284 -0.915,-4.258 1.193,-6.635c-3.955,-0.504 -7.494,-2.218 -7.899,-3.826c-0.405,-1.607 2.476,-2.503 6.431,-2c-3.485,-3.089 -5.603,-6.4 -4.727,-7.389c0.877,-0.989 4.418,0.717 7.903,3.807c-0.974,-3.866 -0.43,-6.834 1.215,-6.625c1.645,0.21 3.771,3.518 4.745,7.384Z" style="fill:rgb(243,0,57);"/>
            <path d="M122.736,156.813c2.753,-2.128 6.719,-1.617 8.852,1.141c2.133,2.758 1.631,6.726 -1.122,8.854c3.714,1.256 6.35,4.8 5.884,7.909c-0.467,3.109 -3.861,4.614 -7.574,3.358c1.878,3.694 1.199,7.602 -1.515,8.721c-2.715,1.119 -6.445,-0.972 -8.323,-4.667c-1.371,3.351 -4.854,4.68 -7.773,2.967c-2.919,-1.714 -4.176,-5.827 -2.805,-9.178c-3.588,0.484 -7.252,-1.766 -8.177,-5.022c-0.925,-3.256 1.237,-6.293 4.826,-6.777c-3.104,-2.747 -4.19,-6.883 -2.424,-9.229c1.765,-2.346 5.718,-2.021 8.822,0.726c-0.282,-3.91 2.028,-6.816 5.154,-6.486c3.127,0.33 5.894,3.773 6.175,7.683Z" style="fill:rgb(243,0,57);"/>
            <path d="M194.352,176.859c-1.632,-2.845 -0.863,-6.355 1.716,-7.834c2.578,-1.48 5.997,-0.371 7.628,2.473c3.104,-2.948 7.127,-4.221 8.979,-2.839c1.852,1.382 0.835,4.897 -2.269,7.846c3.55,1.022 5.268,3.746 3.833,6.079c-1.434,2.333 -5.48,3.398 -9.03,2.376c-0.91,3.58 -3.872,6.536 -6.61,6.596c-2.738,0.06 -4.222,-2.798 -3.312,-6.378c-4.113,1.191 -7.661,0.294 -7.919,-2.002c-0.258,-2.296 2.872,-5.127 6.984,-6.317Z" style="fill:rgb(243,0,57);"/>
            <path d="M123.124,128.066c-1.65,-2.061 -1.765,-4.716 -0.257,-5.924c1.509,-1.207 4.074,-0.515 5.724,1.547c0.218,-2.567 1.991,-4.432 3.957,-4.163c1.966,0.268 3.385,2.57 3.167,5.137c1.958,-1.568 4.581,-1.552 5.852,0.036c1.271,1.588 0.714,4.15 -1.245,5.718c2.552,0.349 4.488,2.237 4.32,4.214c-0.168,1.977 -2.376,3.299 -4.928,2.95c1.65,2.062 1.765,4.716 0.257,5.924c-1.509,1.208 -4.074,0.515 -5.724,-1.547c-0.218,2.567 -1.991,4.432 -3.957,4.163c-1.966,-0.268 -3.385,-2.57 -3.167,-5.136c-1.958,1.568 -4.581,1.551 -5.852,-0.037c-1.271,-1.588 -0.714,-4.15 1.245,-5.718c-2.552,-0.349 -4.487,-2.237 -4.32,-4.214c0.168,-1.977 2.376,-3.299 4.928,-2.95Z" style="fill:rgb(243,0,57);"/>
            <path d="M78.599,145.603c-0,-2.757 1.29,-4.995 2.879,-4.995c1.589,-0 2.879,2.238 2.879,4.995c1.162,-2.112 3.094,-2.561 4.311,-1.003c1.218,1.558 1.263,4.538 0.101,6.65c1.78,-0.479 3.449,1.071 3.725,3.458c0.276,2.387 -0.945,4.714 -2.725,5.193c1.565,1.378 2.191,4.202 1.396,6.301c-0.794,2.1 -2.71,2.685 -4.276,1.306c0.619,2.591 -0.092,5.368 -1.585,6.197c-1.494,0.829 -3.208,-0.601 -3.826,-3.192c-0.618,2.591 -2.333,4.021 -3.826,3.192c-1.493,-0.829 -2.204,-3.606 -1.586,-6.197c-1.565,1.379 -3.481,0.794 -4.275,-1.306c-0.795,-2.099 -0.169,-4.923 1.396,-6.301c-1.78,-0.479 -3.001,-2.806 -2.725,-5.193c0.276,-2.387 1.945,-3.937 3.725,-3.458c-1.162,-2.112 -1.117,-5.092 0.101,-6.65c1.217,-1.558 3.149,-1.109 4.311,1.003Z" style="fill:rgb(243,0,57);"/>
        </g>
        <g id="horizontal">
            <g>
                <rect x="52.5" y="52.5" width="199.997" height="150" style="fill:url(#_Linear1);"/>
                <path d="M65.542,202.5l100.955,-150" style="fill:none;stroke:rgb(158,216,255);stroke-opacity:0.15;stroke-width:5px;"/>
                <path d="M85.497,202.5l100.955,-150" style="fill:none;stroke:rgb(158,216,255);stroke-opacity:0.15;stroke-width:13px;"/>
                <path d="M302.497,2.5l-0,250l-299.997,-0l0,-250l299.997,0Zm-50,50l-199.997,-0l0,150l199.997,0l-0,-150Z" style="fill:rgb(89,89,89);stroke:rgb(38,38,38);stroke-width:5px;"/>
            </g>
        </g>
        <g id="vertical">
            <g>
                <rect x="52.5" y="52.5" width="199.997" height="450" style="fill:url(#_Linear2);"/>
                <path d="M52.5,349.657l199.997,-297.157" style="fill:none;stroke:rgb(158,216,255);stroke-opacity:0.15;stroke-width:5px;"/>
                <path d="M52.5,379.306l199.997,-297.156" style="fill:none;stroke:rgb(158,216,255);stroke-opacity:0.15;stroke-width:13px;"/>
                <path d="M302.497,2.5l-0,550l-299.997,0l0,-550l299.997,0Zm-50,50l-199.997,-0l0,450l199.997,0l-0,-450Z" style="fill:rgb(89,89,89);stroke:rgb(38,38,38);stroke-width:5px;"/>
            </g>
        </g>
    </g>
    <defs>
        <linearGradient id="_Linear1" x1="0" y1="0" x2="1" y2="0.0188169" gradientUnits="userSpaceOnUse" gradientTransform="matrix(199.997,150,-152.939,196.154,52.5,52.5)"><stop offset="0" style="stop-color:rgb(231,250,255);stop-opacity:0.3"/><stop offset="1" style="stop-color:rgb(230,242,255);stop-opacity:0.63"/></linearGradient>
        <linearGradient id="_Linear2" x1="0" y1="0" x2="1" y2="-0.633581" gradientUnits="userSpaceOnUse" gradientTransform="matrix(199.997,450,-152.939,588.462,52.5,52.5)"><stop offset="0" style="stop-color:rgb(231,250,255);stop-opacity:0.3"/><stop offset="1" style="stop-color:rgb(230,242,255);stop-opacity:0.63"/></linearGradient>
    </defs>
</svg>
